<?xml version="1.0"?><svg version="1.2" baseProfile="tiny-ps" viewBox="0 0 300 300" xmlns="http://www.w3.org/2000/svg" xmlns:xlink="http://www.w3.org/1999/xlink"><title>Fruitsalnada</title><g><g fill="#fefefd" transform="matrix(.1 0 0 -.1 0 300)"><path d="M0 1500V0h3000v3000H0V1500z"/></g><g fill="#f6dfb8" transform="matrix(.1 0 0 -.1 0 300)"><path d="M1255 2966c-88-18-161-44-240-85l-69-36-62-58-62-57-41-63-41-64-31-83-30-83-19-114-20-113-11-168-12-167 6-410 6-410 11-110c5-60 17-157 26-215l16-105 34-105 35-104 45-73 45-72 62-56 62-57 90-44 91-44 94-21 95-20h135l135 1 90 19c213 45 353 135 455 292 83 129 120 265 146 536l16 168-5 470-5 470-11 110c-25 241-71 424-136 542l-38 68-66 66-66 65-63 37c-77 45-160 74-267 93l-80 14-130-1-130-1-60-12zm208-486c-6-22-23-27-23-7 0 15 9 27 21 27h7l-5-20zm-103-20c0-5-4-10-10-10-5 0-10 5-10 10 0 6 5 10 10 10 6 0 10-4 10-10zm40 0c0-5-5-10-11-10h-10l6 10c3 6 8 10 11 10 2 0 4-4 4-10zm110-110c0-5-4-10-10-10-5 0-10 5-10 10 0 6 5 10 10 10 6 0 10-4 10-10zm-206-35c-7-16-24-21-24-6 0 8 7 13 27 20 1 1 0-6-3-14zm27-18-12-12 7 18c3 10 9 15 12 12s0-11-7-18zm-41-23c0-3-5-14-11-25l-10-20-10 6-9 6 10 20c10 17 30 27 30 13zm-30-78c0-16-18-31-27-22-8 8 5 36 17 36 5 0 10-6 10-14zm-20-54c0-5-6-16-13-27l-14-18-7 11-6 10 6 16c6 16 34 23 34 8zm23-32c-3-12-8-19-11-16-5 6 5 36 12 36 2 0 2-9-1-20zm-59-53-6-17h-15c-8 0-12 3-10 8 2 4 7 16 11 26l7 19 10-10 10-10-7-16zm27-24c-12-20-14-14-5 12 4 9 9 14 11 11 3-2 0-13-6-23zm81-18-9-18-7 11-6 10 6 17 7 16 9-9 10-10-10-17zm-132-4c0-21-13-41-26-41h-14l12 25c11 24 28 34 28 16zm30-31c-6-11-13-20-16-20-2 0 0 9 6 20s13 20 16 20c2 0 0-9-6-20zm80-5c0-8-4-15-10-15h-9l5 15c4 8 8 15 10 15s4-7 4-15zm168-50 32-7v-38l-27 6c-55 13-113 55-113 81v13l38-24c20-13 52-27 70-31zm-309-5c-6-16-14-30-18-30-16 0-19 13-9 36l11 24h26l-10-30zm34-5c-3-9-8-14-10-11-3 3-2 9 2 15 9 16 15 13 8-4zm173-12c19-14 58-34 87-43l52-17 7-39c4-21 7-59 8-84 0-25 4-51 9-59l9-14 12 8 13 8-7 76c-3 42-9 86-12 99l-6 22h30l27 32 28 33 66-36 66-35 26-40c34-52 71-145 72-186l2-33-30 3-30 4-26 26-27 26 17 13 16 12-17 6-16 6-29-15-29-15-43 6-42 6-30-22-30-22-15 12-15 12-23-11-24-11-5 20-5 19h-32l6-40 7-40h-22c-12 0-35-7-51-15l-28-15-21-33-21-34v-31c0-17-4-33-9-36l-8-6-18 20-17 19 11 84 11 84-10 51-11 51-15 12-14 12-7-7-6-6 11-39c13-42 15-115 4-176l-7-40-37 3c-21 2-47 1-58-3l-20-6v-31l33 6 33 6 44-29c25-16 56-38 69-49l24-19-22-30-22-30-6-41c-3-23-8-42-10-42s-25 12-51 27c-57 32-109 79-128 115l-14 27v123l20 97c24 118 40 159 82 206l31 36 76 39c42 22 77 39 79 40 2 0 19-12 38-27zm204 2c-7-8-16-15-21-15s-9 7-9 15v15h42l-12-15zm-440-44c0-12-20-25-27-18s6 27 18 27c5 0 9-4 9-9zm84-676c11-8 27-15 36-15 8 0 57-31 109-70l93-70h21c12 0 83 11 156 25 74 13 137 22 139 20 5-4 30-282 32-336v-26l-37-16c-119-50-363-72-518-47l-59 10-19 18-18 19 10 144c6 79 13 192 17 252 3 59 9 107 12 107 4 0 16-7 26-15z"/></g><g fill="#96a76b" transform="matrix(.1 0 0 -.1 0 300)"><path d="M1308 2970c-102-16-181-41-263-80l-80-39-52-43c-205-171-269-396-288-1003l-6-200 10-309 11-309 15-136 15-136 25-105 26-105 46-95 46-95 76-75 76-76 70-36c93-48 179-73 299-88l99-13 98 7c210 13 361 65 485 164l59 48 50 70 51 70 33 84 33 83 18 96c10 53 24 148 31 211l13 115v450l-1 450-12 140c-24 287-68 482-134 610l-32 60-80 81-80 80-73 38-72 37-98 25-97 25-130 4-130 4-57-9zm272-50c114-14 222-44 295-83l60-32 71-71 71-70 42-85 41-84 20-78c43-172 65-422 75-852l6-260-10-221-11-221-15-107c-19-139-39-215-80-304l-34-72-45-58-45-57-52-39c-69-52-161-92-267-118l-87-21h-140l-140-1-80 18c-363 82-506 296-557 831l-13 140v1010l14 115c7 63 24 157 37 208l23 93 37 77 37 77 71 71 71 71 45 24c176 92 355 124 560 99zm-210-403-34-11-63-61-62-61-5-49c-7-70-57-209-133-375-53-115-61-136-73-197l-9-52 12-48 12-48-6-30c-4-16-7-72-8-123l-1-93 15-28c15-30 101-111 117-111h9l-5-52c-3-29-11-153-17-276l-12-223 17-17c9-9 31-22 49-28l32-11 6-30c8-42 16-51 67-84l46-29h44c24 0 52 5 63 10l19 11v47l-15 12c-8 7-15 16-15 20v8l70 7 69 7 15-15 15-15 79-21 78-21h90l18 13 18 13-4 24-3 24-33 22c-18 13-38 24-45 27l-12 4 27 24 27 24-16 188c-8 103-13 190-11 193 3 2 53 13 112 24s111 22 117 25l9 6v95l11 11 11 11v52l-1 53-10 10-10 10 15 22 15 22-11 28-10 27-20 5-20 5v48l-20 20c-11 11-24 20-29 20h-10l11 30 10 31 34 26c33 25 43 43 24 43-5 0-25-13-43-30l-35-30-6 30-5 30h-21l6-55 7-56-26 12-26 12-21 71c-12 39-30 87-40 107-18 34-79 96-113 116l-17 9 10 62c6 34 11 110 13 170l2 107-14 47c-7 26-19 53-27 59l-13 11 12 19 12 20-17 10c-10 6-18 15-18 22l-1 12-68 33-67 32-55-1c-30-1-70-6-89-12zm55-27c-3-5-10-10-16-10-5 0-9 5-9 10 0 6 7 10 16 10h15l-6-10zm45-5v-14l15 5 15 6v-23l-17 3c-10 1-23-1-30-5l-12-7-5 9c-9 14 4 41 20 41h14v-15zm60 5c0-5-4-10-9-10-6 0-13 5-16 10l-6 10h15c9 0 16-4 16-10zm40-16c0-2-7-4-15-4s-15 4-15 10v9l15-5c8-4 15-8 15-10zm-200-1c0-5-4-14-9-22l-9-14-11 8-12 7 12 14c12 15 29 19 29 7zm40-14c0-5-2-9-4-9s-11-3-19-6l-16-6 6 21 5 20 14-6c8-3 14-9 14-14zm-100-23c0-3-4-8-10-11l-10-6v10c0 6 5 11 10 11 6 0 10-2 10-4zm320-61c0-8-4-15-10-15-5 0-10 7-10 15s5 15 10 15c6 0 10-7 10-15zm-50-5v-10h-41l6 10c3 6 13 10 21 10s14-4 14-10zm-110-10c0-5-5-10-11-10h-10l6 10c3 6 8 10 11 10 2 0 4-4 4-10zm36-18c-22-5-30 3-21 18l7 11 15-13 16-13-17-3zm133-27 3-19-15 13-16 12-28-3-28-3-3-16-3-16 45 2 44 2 6-30c8-38 8-132 0-139-10-10-38 24-68 82-32 62-43 76-52 68-3-4 4-28 15-53 12-26 21-53 21-61v-13l-60 1-60 1-20-18c-11-10-20-25-20-34l-1-16-24 27-23 27-7 55-7 55 19 33 19 33 29 14 28 14 32-12 32-11 34 15 34 15 35-3 35-2 4-20zm-329-5-10-19-15 5c-27 11-13 31 23 33l13 1-11-20zm28-13-11-22-5 13c-2 7-1 20 2 28l6 15 10-6 10-6-12-22zm-88-9c0-7-4-20-10-28l-9-14-6 6-7 6 7 21c7 23 25 29 25 9zm42-23c-2-11-9-26-15-33l-10-13-10 10-10 10 7 26 7 26 17-3 17-4-3-19zm17-31-11-29-5 12c-5 13 16 58 23 50 3-2-1-17-7-33zm-93-29c-4-14-11-25-16-25h-9l11 31c12 35 23 31 14-6zm471-7-5-13v50l5-12c2-7 2-19 0-25zm-420 7c2-6-2-18-9-28l-13-17-12 8-12 8 6 22 6 23 15-3c8-2 17-8 19-13zm14-48-11-11v20c0 12 3 24 8 28l7 8 3-17 4-17-11-11zm-91-17c-6-11-12-20-14-20s-2 9 1 20 9 20 15 20h9l-11-20zm44 14 15-6-11-24c-11-23-28-31-41-18-5 5 12 54 19 54 1 0 9-3 18-6zm32-49c-4-14-11-25-16-25-13 0-13 16 1 42s23 16 15-17zm334-28c0-10-4-26-10-36l-9-18-43 2-43 3-7-11-7-11-20 18-21 19v52h160v-18zm-436-9-5-23 12 23c21 39 54 26 38-17l-9-23-18 7c-9 4-23 8-29 8-16 0-16 3-3 28 14 25 19 24 14-3zm126-1c0-7-7-22-15-33l-15-19 11 33c11 33 19 41 19 19zm-40-1c0-3-5-17-10-32l-11-27-10 10-11 11 11 21c10 18 31 30 31 17zm70-36c0-19-17-36-27-26-3 3-2 17 1 31l7 26 9-6c6-3 10-15 10-25zm360-11v-20l-10 6-9 6 6 14c7 21 13 19 13-6zm-490-11c0-5-5-18-10-29l-11-19h-29v16c0 8 5 24 10 34l10 19 15-5c8-4 15-10 15-16zm-60-18c-6-12-14-19-17-17-2 3 1 15 7 27s14 19 17 17c2-3-1-15-7-27zm90 1c0-17-12-41-21-41-10 0-12 33-2 43 9 10 23 9 23-2zm31-14-12-12 7 18c3 10 9 15 12 12s0-11-7-18zm409 8v-15h-32l12 15c7 8 14 15 16 15s4-7 4-15zm-362-7c-2-6-10-14-16-16l-12-4v32h32l-4-12zm158-49 44-11v-38h-22c-28 0-100 35-122 59l-16 18 6 17 6 16 30-25 30-25 44-11zm-356-9c-6-12-14-19-17-17-2 3 1 15 7 27s14 19 17 17c2-3-1-15-7-27zm60 19c0-6-5-19-10-30l-11-19h-14c-17 0-18 5-9 38l6 22h38v-11zm72-11-12-12v10c0 14 12 26 19 19 2-3-1-11-7-17zm-42-7c-5-11-15-23-20-26l-10-6v13c0 15 19 38 32 38h9l-11-19zm217-45c18-9 40-16 50-16s24-4 31-9l14-8 9-84c5-46 12-90 14-98l6-14 10 10 11 11-12 93-11 94 13 4c7 2 26 17 41 33 34 33 37 34 86 8 86-44 121-90 167-220l23-65-15-17-16-17-25 12c-14 6-39 24-55 39l-30 28h16c9 0 16 5 16 10v10h-18c-10 0-27-7-39-15l-21-15-29 11-30 10-26-10c-14-6-35-19-47-31l-20-20v30h-23c-13 0-28-5-34-11l-12-12-7 27c-3 14-11 26-16 26h-11l6-39 5-39-36-7-36-7-32-32-32-32-7-47-7-47h-13c-6 0-19 8-27 18l-16 17 10 60 10 60-5 65-4 66-12 22-12 23-9-6-9-5 10-33c10-36 12-134 3-189l-7-38-37 6-37 6-22-11c-11-7-21-16-21-22v-11l38 7 38 6 65-47c35-26 66-48 68-50 3-2-5-15-18-27-12-13-26-39-31-58l-10-34 6-17 5-18h-8c-13 0-125 70-151 93-13 12-30 34-38 49l-14 27v166l20 88 19 88 28 50 27 50 30 22c17 12 62 39 101 59l70 37 25-23c14-13 39-31 57-40zm173 49c0-2-10-13-22-24l-21-20-9 5c-15 9-8 24 15 34 26 10 37 12 37 5zm-500-53c0-5-7-17-15-28l-14-19-1 12c0 19 11 43 21 43 5 0 9-4 9-8zm44-1 6-8-20-18c-25-22-36-14-20 14 11 22 25 27 34 12zm-79-81c-4-12-9-19-12-17-3 3-2 15 2 27s9 19 12 17c3-3 2-15-2-27zm23-5c-6-14-13-23-15-21-5 5 15 46 22 46 3 0-1-11-7-25zm-28-80c-6-15-13-26-16-23-2 3 0 18 6 33s13 26 16 23c2-3 0-18-6-33zm360-406 35-30-20 4c-11 3-28 8-37 12l-18 7v-40l45-46 44-46h-14c-8 0-32 16-54 35-42 38-51 42-51 21 0-8 16-28 35-45 43-37 35-41-11-6-18 14-38 25-44 25h-11l7-12c4-7-4-3-17 9l-23 23v67l17 27 17 26h66l34-31zm640 1c0-5-7-10-16-10h-15l6 10c3 6 10 10 16 10 5 0 9-4 9-10zm-790-130c6 0 54-32 106-71l95-71 142 26c78 14 149 26 158 26h16l14-172c7-95 14-177 14-183 0-5-21-20-46-33l-45-22-90-16-89-16-160 4-160 3-30 15-30 15v80c1 94 14 351 21 413l5 43 33-21c19-11 39-20 46-20zm156 1115c-9-9-16-21-16-26 0-12 23-12 36 0 5 5 20 11 34 13l25 3v20l-31 3-31 3-17-16zm176-46 3-24 10 3c6 1 10 10 10 19v16l-13 5-14 4 4-23zm-142-20v-21l13 4c6 3 13 12 15 21l3 17h-31v-21zm25-149-6-9 20-10c37-20 101-11 101 15v14l-26-12-25-12-30 11-29 11-5-8z"/></g><g fill="#d28c57" transform="matrix(.1 0 0 -.1 0 300)"><path d="M1308 2970c-102-16-181-41-263-80l-80-39-52-43c-205-171-269-396-288-1003l-6-200 10-309 11-309 15-136 15-136 25-105 26-105 46-95 46-95 76-75 76-76 70-36c93-48 179-73 299-88l99-13 98 7c210 13 361 65 485 164l59 48 50 70 51 70 33 84 33 83 18 96c10 53 24 148 31 211l13 115v450l-1 450-12 140c-24 287-68 482-134 610l-32 60-80 81-80 80-73 38-72 37-98 25-97 25-130 4-130 4-57-9zm272-50c114-14 222-44 295-83l60-32 71-71 71-70 42-85 41-84 20-78c43-172 65-422 75-852l6-260-10-221-11-221-15-107c-19-139-39-215-80-304l-34-72-45-58-45-57-52-39c-69-52-161-92-267-118l-87-21h-140l-140-1-80 18c-363 82-506 296-557 831l-13 140v1010l14 115c7 63 24 157 37 208l23 93 37 77 37 77 71 71 71 71 45 24c176 92 355 124 560 99zm-209-403-35-11-44-45c-66-68-77-82-74-93 1-6-2-16-9-24l-11-13 6-9 6-10-29-83c-38-110-61-166-108-269-53-115-61-136-73-197l-9-52 14-53 14-53-11-70-10-70 5-53 6-54 21-31c12-18 42-47 66-66l44-33v-72c-1-39-7-161-14-271l-14-200 12-14c6-8 30-23 54-33l42-19v-58l37-30c21-17 53-36 71-42l33-11 35 6 34 7 10 18 10 19-24 35-24 35 82 4 81 5 10-12c12-16 91-41 169-56l58-10 28 11c49 20 49 59 2 80-15 6-35 17-46 25l-18 14 27 24 27 23-16 189c-9 103-13 191-10 194s56 15 117 26l112 20 3 50c2 27 7 54 11 60 5 5 11 21 14 35l6 25-9 45-8 45 9 10c5 5 9 20 9 32v24l-30 17-29 17-3 30-3 30-22 10-23 10v13c0 7 7 26 15 41l14 29 33 21 33 21h-31l-32-31-32-31-6 31c-4 17-11 34-17 38l-10 6 6-16c11-30 19-86 13-96l-6-9-29 14-29 14-16 67c-27 107-59 157-131 208l-43 31 9 15c4 9 13 72 18 141l10 125-8 54c-11 63-25 104-40 114l-11 6 6 25 6 24h-10c-5 0-12 9-15 20l-5 20h-42v9c0 5-19 19-43 30l-43 21-55-1c-30-1-69-6-88-12zm54-27c-3-5-10-10-16-10-5 0-9 5-9 10 0 6 7 10 16 10h15l-6-10zm45-2c0-7-5-20-10-28l-9-15-11 11-11 11 7 16 6 17h28v-12zm60 2c0-5-4-10-9-10-6 0-13 5-16 10l-6 10h15c9 0 16-4 16-10zm40-15c0-1-9-5-19-8l-20-5 6 14 5 13 14-6c8-3 14-6 14-8zm-206-17c-9-31-14-35-24-18l-9 14 11 13c6 7 15 13 20 13h9l-7-22zm46-4v-14h-38l5 19 5 20 14-6c8-3 14-11 14-19zm95 16 6-10h-42l6 10c3 6 10 10 15 10s12-4 15-10zm-195-40c0-5-4-10-10-10-5 0-10 5-10 10 0 6 5 10 10 10 6 0 10-4 10-10zm270-56v-16l-36 5-35 5 5-14 5-14h-39v19l-14-5-14-5-7 11-6 10h28c40 0 93 7 100 14 10 10 13 7 13-10zm50 1c0-8-3-15-6-15s-12 7-20 15l-15 15h41v-15zm-220-25c-19-13-30-13-30 0v10h45l-15-10zm-43-6c-3-3-12-4-19-1l-13 5 19 1c11 1 17-2 13-5zm-47-12c0-5-6-16-12-25l-13-17-15 10-15 10 19 15c22 17 36 19 36 7zm321-19 10-27 2-87c1-48-1-90-4-94l-7-6-23 24c-13 13-37 50-54 81l-30 57-3-11c-2-5 6-26 18-45l22-35-4-17-3-18h-127l-23-29-23-29-11 7c-17 11-38 57-44 98l-6 37 22 43 22 43 29 14 29 14 32-12 32-11 34 14c19 9 49 15 67 16h32l11-27zm-303-16-11-22-5 13c-2 7-1 20 2 28l6 15 10-6 10-6-12-22zm-88-9c0-7-4-20-10-28l-9-14-6 6-7 6 7 21c7 23 25 29 25 9zm42-23c-2-11-9-26-15-33l-10-13-10 10-10 10 7 26 7 26 17-3 17-4-3-19zm388-8v-8l-10 6c-5 3-10 14-10 23v17l10-15c5-8 10-19 10-23zm-371-23-11-29-5 12c-5 13 16 58 23 50 3-2-1-17-7-33zm-93-29c-4-14-11-25-16-25h-9l11 31c12 35 23 31 14-6zm474 4v-20l-10 6c-5 3-10 13-10 21s5 14 10 14h10v-21zm-423-4c2-6-2-18-9-28l-13-17-12 8-12 8 6 22 6 23 15-3c8-2 17-8 19-13zm14-48-11-11v20c0 12 3 24 8 28l7 8 3-17 4-17-11-11zm-91-17c-6-11-12-20-14-20s-2 9 1 20 9 20 15 20h9l-11-20zm44 14 15-6-11-24c-11-23-28-31-41-18-5 5 12 54 19 54 1 0 9-3 18-6zm32-49c-4-14-11-25-16-25-13 0-13 16 1 42s23 16 15-17zm421 3-5-13v50l5-12c2-7 2-19 0-25zm-80-29 3-24-14-18-14-18-63-2-63-2-15 26-14 26 7 18 6 18 49-7 48-6 24 9c33 13 44 9 46-20zm-443-11-5-23 12 23c21 39 54 26 38-17l-9-23-18 7c-9 4-23 8-29 8-16 0-16 3-3 28 14 25 19 24 14-3zm126-1c0-7-7-22-15-33l-15-19 11 33c11 33 19 41 19 19zm-40-1c0-3-5-17-10-32l-11-27-10 10-11 11 11 21c10 18 31 30 31 17zm75-27 7-21-13-9c-28-17-37-3-23 35 9 22 21 20 29-5zm355-21v-21l-7 7c-11 10-12 36-2 36h9v-22zm-490-10c0-5-5-18-10-29l-11-19h-29v16c0 8 5 24 10 34l10 19 15-5c8-4 15-10 15-16zm-60-18c-6-12-14-19-17-17-2 3 1 15 7 27s14 19 17 17c2-3-1-15-7-27zm90 1c0-17-12-41-21-41-10 0-12 33-2 43 9 10 23 9 23-2zm31-14-12-12 7 18c3 10 9 15 12 12s0-11-7-18zm409 8v-15h-15c-16 0-20 12-8 23 11 12 23 8 23-8zm-357-8 5-13-19-1-19-2v29h14c8 0 16-6 19-13zm85-12 37-25 38-7c44-7 47-11 36-40l-8-22-38 10c-21 6-55 22-75 36l-38 26v23c0 30 3 30 48-1zm248-22c-7-7-26 7-26 19v10l15-12c9-7 13-15 11-17zm-536-23c-6-12-14-19-17-17-2 3 1 15 7 27s14 19 17 17c2-3-1-15-7-27zm60 19c0-6-5-19-10-30l-11-19h-14c-17 0-18 5-9 38l6 22h38v-11zm98-4c-2-1-13-8-26-14l-24-13 11 21 11 20 16-6c8-3 14-7 12-8zm-65-12c-8-24-24-43-34-43h-8l6 18c8 23 24 42 34 42h8l-6-17zm142 7c4-6 30-24 58-40l52-30h53l7-17c3-10 9-55 12-100l6-83h17v38c0 20-5 64-10 97l-10 60 13 4c6 2 27 19 45 38l32 34 53-24c28-13 66-36 84-51l32-27 29-62c16-34 35-84 42-110l13-48-14-14-14-13-32 5-33 5v28l-30 19-30 18 22 11 23 11h-15c-9 1-26-6-38-15l-22-15-35 11-35 12-37-19-37-19-15-32c-9-17-20-32-24-32h-8l11 19c5 11 10 27 10 35v16h-14c-7 0-19-7-26-15s-16-15-21-15h-9v50h-18l5-42 6-41-12 7-11 7-35-11-34-11-25-30-25-30-7-49c-4-28-9-50-13-50-3 1-16 9-29 20l-24 19 11 86 10 86-9 51c-6 29-15 57-21 63l-12 10 9-30c10-35 11-178 1-216l-7-26-49 5-48 4-8-12c-10-17 1-23 22-12l18 10 30-12c17-7 54-32 82-55l53-41-21-21c-26-26-39-61-39-106v-35l-57 32c-32 18-75 46-95 62l-37 29-17 44-17 45 7 83c8 99 41 241 66 282 30 48 72 83 151 125 81 43 85 45 94 30zm249-2c-15-27-38-48-51-48h-14l3 22 3 22 25 7c14 4 29 7 33 8l8 1-7-12zm-504-56c0-5-7-17-15-28l-14-19-1 12c0 19 11 43 21 43 5 0 9-4 9-8zm48-1 13-8-17-14c-10-8-30-34-46-58l-28-45v16c0 8 9 27 20 40 10 14 17 28 14 31-7 6 14 47 24 47 4 0 13-4 20-9zm-83-81c-4-12-9-19-12-17-3 3-2 15 2 27s9 19 12 17c3-3 2-15-2-27zm0-90-7-32-9 9-10 10 11 28c14 36 24 26 15-15zm873-143-3-22h-60l-3 19-4 20 17 12 18 13 19-10 19-10-3-22zm-90-20-3-22h-60l-3 19-4 20 17 12 18 13 19-10 19-10-3-22zm146 10 18-13-4-20-3-19-24-3-23-4-10 10-9 9 12 26c14 31 18 32 43 14zm-84-58 11-20-12-15c-6-8-19-14-29-14s-23 6-29 14l-12 15 11 20 11 21h38l11-21zm-92-11c7-7 12-18 12-25v-13l-26-12-26-12-14 18-13 19 10 18 10 19h17c10 0 23-5 30-12zm190-30 3-17-20-10-20-11-15 6-16 6v49l32-3 33-3 3-17zm52 3 10-20-16-15c-8-9-22-16-30-16h-15l11 21 12 21-6 14-5 14h28l11-19zm-139-42 11-21-9-8c-4-4-18-11-30-15l-23-6v59l13 5c21 9 26 7 38-14zm-71-13v-25l-20-6-21-7-14 12c-8 7-15 17-15 22 0 9 36 26 58 27l12 1v-24zm-183-33-5-18v70l5-17c2-10 2-26 0-35zm316 20c-7-2-21-2-30 0l-18 5h60l-12-5zm47-23c0-5-2-10-4-10-3 0-8 5-11 10l-6 10h10c6 0 11-4 11-10zm-53-6c-3-3-12-4-19-1l-13 5 19 1c11 1 17-2 13-5zm83-3c0-6-4-13-10-16l-10-6v15c0 9 5 16 10 16 6 0 10-4 10-9zm-635-47c19-14 35-31 35-36v-10l-22 5c-13 2-32 8-42 12l-19 8 19-32c10-18 34-46 53-62s32-31 29-35c-11-10-48 6-84 38l-34 30v-11c0-11 14-25 55-55l20-15-19-1h-19l-34 26c-31 24-46 21-21-4l12-12h-11c-6 0-23 14-38 32l-27 32 5 43 5 44 18 20 19 21 32-5 33-6 35-27zm362 20c-3-3-12-4-19-1l-13 5 19 1c11 1 17-2 13-5zm283-25v-9h-27l-28 1 19 14c19 14 36 12 36-6zm-413 5c-3-3-12-4-19-1l-13 5 19 1c11 1 17-2 13-5zm-60-10c-3-3-12-4-19-1l-13 5 19 1c11 1 17-2 13-5zm-64-11c-7-2-19-2-25 0l-13 5h50l-12-5zm-29-56 11-9-15 5-15 4-2 24-2 24 6-20c3-11 10-24 17-28zm556 33c0-12-28-25-36-17-9 9 6 27 22 27 8 0 14-5 14-10zm-357-7c-7-2-19-2-25 0l-13 5h50l-12-5zm-263-28 15-20-17 14c-10 7-18 18-18 24s1 8 3 6c1-2 9-13 17-24zm193 18c-7-2-19-2-25 0l-13 5h50l-12-5zm330 0c-7-2-19-2-25 0l-13 5h50l-12-5zm-386-9c-3-3-12-4-19-1l-13 5 19 1c11 1 17-2 13-5zm460-41-5-18v60l5-12c2-7 2-21 0-30zm-430 21c-3-3-12-4-19-1l-13 5 19 1c11 1 17-2 13-5zm180 0c-3-3-12-4-19-1l-13 5 19 1c11 1 17-2 13-5zm156-1c-7-2-19-2-25 0l-13 5h50l-12-5zm-717-18c10-8 27-15 36-15h18l95-73 96-73 156 28c86 15 158 26 161 24 5-6 23-224 25-316l2-64-58-24c-32-12-83-28-115-34l-57-12h-170l-170-1-38 13-37 14-9 17-10 17 17 257 16 257h11c6 0 20-7 31-15zm317 8c-7-2-19-2-25 0l-13 5h50l-12-5zm180 0c-7-2-19-2-25 0l-13 5h50l-12-5zm164 1c-3-3-12-4-19-1l-13 5 19 1c11 1 17-2 13-5zm-220-10c-3-3-12-4-19-1l-13 5 19 1c11 1 17-2 13-5zm150 0c-3-3-12-4-19-1l-13 5 19 1c11 1 17-2 13-5zm-210-10c-3-3-12-4-19-1l-13 5 19 1c11 1 17-2 13-5zm-69-11c-10-2-26-2-35 0l-18 5h70l-17-5zm159 1c-3-3-12-4-19-1l-13 5 19 1c11 1 17-2 13-5zm286-1c-7-2-19-2-25 0l-13 5h50l-12-5zm-346-9c-3-3-12-4-19-1l-13 5 19 1c11 1 17-2 13-5zm290 0c-3-3-12-4-19-1l-13 5 19 1c11 1 17-2 13-5zm102-9c-5-4-155-35-173-35h-9l7 8c4 4 40 12 79 18 89 14 102 15 96 9zm-528-14-13-9 4-40 3-40-7 4c-10 6-11 78-1 87 3 4 11 7 17 7h11l-14-9zm334-21c-3-5-11-10-16-10h-10l6 10c3 6 11 10 16 10h10l-6-10zm-395-4c0-2-9-6-20-9l-20-5-6 9-5 9h25c14 0 26-2 26-4zm337-12c-3-3-12-4-19-1l-13 5 19 1c11 1 17-2 13-5zm-323-33c-2-3-12 3-22 13l-17 18 22-13c12-7 20-15 17-18zm263 23c-3-3-12-4-19-1l-13 5 19 1c11 1 17-2 13-5zm-50-10c-3-3-12-4-19-1l-13 5 19 1c11 1 17-2 13-5zm-120-20c-3-3-12-4-19-1l-13 5 19 1c11 1 17-2 13-5zm40 1249c-4-3-7-10-7-15v-8h72l-12 15c-13 16-42 20-53 8zm-149-24c-10-5-18-17-18-25v-15l22 15c12 9 31 16 41 16h18l-6 10c-8 13-35 12-57-1zm162-48c0-6 5-13 10-16l10-6v15c0 9-4 16-10 16-5 0-10-4-10-9zm-134-10c-4-7-5-15-2-18 9-9 19 4 14 18l-4 13-8-13zm38-175c25-20 56-20 82-1l19 14-12 1c-6 0-15-5-19-11l-6-11-22 5c-11 2-30 8-41 12l-20 7 19-16z"/></g><g fill="#b65034" transform="matrix(.1 0 0 -.1 0 300)"><path d="m1345 2969-80-8-88-26c-104-30-161-57-244-118l-62-46-41-53c-113-142-164-317-190-647l-10-135v-671l15-217c27-405 70-574 191-744l44-62 62-47c105-78 212-123 352-146l76-12 147 6 148 5 65 17c36 10 106 36 155 59l90 42 62 58c136 125 199 272 239 551l16 110 5 423 5 423-11 182c-14 230-35 391-66 513l-24 95-35 72-35 72-50 60c-121 146-278 219-530 244-57 6-108 10-115 10-6-1-47-5-91-10zm327-59 100-21 64-29c35-16 91-50 124-75l61-47 39-51c21-29 52-80 69-114l31-63 25-92c30-113 51-279 65-498l10-165v-704l-10-128c-20-241-49-372-113-501l-31-64-68-73-68-73-78-40-78-41-80-23-79-23h-370l-65 18c-36 10-98 34-137 53l-73 35-59 49-58 49-41 60-41 61-31 81c-42 110-67 234-87 440l-17 174v480l-1 480 13 100c38 293 88 434 194 550l48 52 62 41c73 48 175 88 268 107l65 13 123 1 124 1 100-20zm-267-389c-51-13-88-37-140-93l-50-53 3-12c1-6-2-14-8-18l-10-6 6-23 5-23-41-114c-23-63-67-167-97-233l-55-118-11-60-11-59 13-47 12-48-12-74-11-75 5-53 6-54 21-31c12-18 42-47 66-66l44-33v-72c-1-39-7-161-14-271l-14-200 12-14c6-8 30-23 53-33l43-19v-58l37-30c21-17 53-36 71-42l33-11 35 6 34 7 10 18 10 19-24 35-24 35 82 4 81 5 10-12c12-16 91-41 169-56l58-10 28 11c49 20 49 59 2 80-15 6-35 17-46 25l-18 14 27 24 27 23-16 189c-9 103-13 191-10 194s56 15 117 26l112 20 3 50c2 27 7 54 11 60 5 5 11 21 14 35l6 25-9 45-8 45 9 10c5 5 9 20 9 32v24l-30 17-29 17-3 30-3 30-22 10-23 10v13c0 7 7 26 15 41l14 29 33 21 33 21h-31l-32-31-32-31-6 31c-4 17-11 34-17 38l-10 6 6-16c11-30 19-86 13-96l-6-9-29 14-29 14-16 66c-28 110-72 177-145 220l-28 17 10 46 9 46 2 145 1 145-22 41-22 41 6 22 5 21h-10c-5 0-12 9-15 20l-5 20h-16c-9 0-29 9-45 21-45 33-113 45-176 30zm139-30c35-14 31-19-21-26-22-3-84-14-138-25s-100-18-102-16 12 16 32 32l36 27 47 13 47 13 35-3c19-2 48-9 64-15zm100-117 6-16-28 3c-31 3-92-9-108-22l-11-9-31 12c-18 7-32 15-32 19 0 5 92 20 166 27l32 2 6-16zm-224-19c0-3-16-11-35-19s-35-19-35-25c0-5-6-16-13-23s-26-55-42-106-33-96-37-98c-4-3-8-14-8-24s-16-53-35-95l-35-76-17-6c-40-16-107-115-117-175l-7-38h-19v99l16 48c9 26 34 85 55 130 21 46 39 85 39 88s7 19 15 35 16 33 17 37c0 5 16 51 35 103 18 52 33 95 33 96s19 8 43 17c78 29 147 44 147 32zm217-18c2-2 8-39 13-83l11-79-7-37c-3-21-7-38-9-38-12 0-54 55-80 104l-30 57-3-11c-2-5 6-26 18-45l22-35-4-17-3-18h-127l-23-29-23-29-11 7c-18 11-38 57-45 104l-6 42 20 40 20 39 21 12 22 11 47-6 47-6 34 15 34 15 29-5c16-3 31-7 33-8zm52-91 13-58-11-11-11-11-2 15c0 7-3 25-5 39s-5 45-7 70l-4 44 7-14c4-8 13-41 20-74zm11-131c0-8-4-17-10-20l-10-6v52l10-6c6-3 10-12 10-20zm-390-55c4 0 11-7 14-17l7-16-11-31-10-31-50-28c-27-16-50-26-50-24 0 3 13 33 29 68s35 79 42 97l14 33 3-25c2-15 7-26 12-26zm297 19 3-24-14-18-14-18-63-2-63-2-15 26-14 26 7 18 6 18 49-7 48-6 24 9c33 13 44 9 46-20zm78-56c-4-16-11-44-14-63l-7-35-7 12-8 12-13-5-14-5-6 10-7 11 21 22c12 13 26 33 31 46 5 12 14 22 20 22h11l-7-27zm-297-58 37-25 38-7c44-7 47-11 36-40l-8-22-38 10c-21 6-55 22-75 36l-38 26v23c0 30 3 30 48-1zm-53-35c4-6 30-24 58-40l52-30h53l7-17c3-10 9-55 12-100l6-83h17v38c0 20-5 64-10 97l-10 60 13 4c6 2 27 19 45 38l32 34 53-24c28-13 66-36 84-51l32-27 29-62c16-34 35-83 42-109l13-48-13-15-12-14-29 6-29 5-34 33-35 32 22 11 22 11h-16c-8 1-24-6-35-14l-19-14-52 6-52 6-28-30c-15-17-36-41-46-54l-18-24 7 20c3 11 9 30 11 43l5 22h-15c-8 0-20-7-27-15s-16-15-21-15h-9v50h-18l5-40 6-40h-63l-36-32-35-33-7-50-7-50h-10c-6 0-21 7-33 17l-24 16 11 86 10 87-9 51c-6 29-15 57-21 63l-12 10 9-30c10-35 11-178 1-216l-7-26-49 5-48 4-8-12c-10-17 1-23 22-12l18 10 30-12c17-7 54-32 82-55l53-41-21-21c-26-26-39-61-39-106v-35l-57 32c-32 18-75 46-95 62l-37 29-17 44-17 45 7 83c8 99 41 241 66 282 30 48 72 83 151 125 81 43 85 45 94 30zm249-2c-15-27-38-48-51-48h-14l3 22 3 22 25 7c14 4 29 7 33 8l8 1-7-12zm76-294c2-3-2-9-9-14l-14-8 7-17 6-16 17 3 18 4-2 22-3 22h47l17-19 18-19-12-22-12-22 6-24 6-24-22-4c-13-3-39-7-58-10l-35-6-38 13c-20 8-34 16-31 19 9 9-6 48-18 48h-10l5-22 6-21-17 17-17 17 20 37 20 37 25 12 25 13 25-6c14-3 27-8 30-10zm258-77-3-22h-60l-3 19-4 20 17 12 18 13 19-10 19-10-3-22zm-90-20-3-22h-60l-3 19-4 20 17 12 18 13 19-10 19-10-3-22zm-408 18c0-8-4-15-10-15-5 0-10-7-10-15v-14l20-11 21-11-21-29-21-29-7-41-7-40-35 18-34 19-8 28-7 29 6 26c3 14 13 36 22 49l15 24 31 13c39 17 45 17 45-1zm74-14 17-18-21-6-20-5-10 18-9 17 6 7c10 10 19 7 37-13zm480 6 18-13-4-20-3-19-24-3-23-4-10 10-9 9 12 26c14 31 18 32 43 14zm-84-58 11-20-12-15c-6-8-19-14-29-14s-23 6-29 14l-12 15 11 20 11 21h38l11-21zm-356 1c17-5 43-12 57-15l27-5 16-34c18-38 20-74 7-95l-9-15-87-12-86-13-15 6c-9 3-20 17-25 30l-9 25 11 41 11 40 28 29c32 32 32 32 74 18zm264-12c7-7 12-18 12-25v-13l-26-12-26-12-14 18-13 19 10 18 10 19h17c10 0 23-5 30-12zm-88-25c0-9 6-24 14-32 7-9 16-28 20-42l6-27-23-6c-12-3-30-6-39-6h-18v34c0 19-4 46-9 60l-10 25 12 5c7 2 20 5 30 5l17 1v-17zm278-5 3-17-20-10-20-11-15 6-16 6v49l32-3 33-3 3-17zm52 3 10-20-16-15c-8-9-22-16-30-16h-15l11 21 12 21-6 14-5 14h28l11-19zm-139-42 11-21-9-8c-4-4-18-11-30-15l-23-6v59l13 5c21 9 26 7 38-14zm-71-13v-25l-20-6-21-7-14 12c-8 7-15 17-15 22 0 9 36 26 58 27l12 1v-24zm133-13c-7-2-21-2-30 0l-18 5h60l-12-5zm42-30c-4-10-10-37-12-60l-5-41-57-10c-31-5-145-25-254-43l-199-32-8 14-9 14 17 6c9 3 61 12 115 19l97 13v17h-22c-13 0-61-7-108-14-47-8-88-12-92-9-13 7-9 41 5 50 9 6 366 67 531 92l8 1-7-17zm35-2c0-6-4-13-10-16l-10-6v15c0 9 5 16 10 16 6 0 10-4 10-9zm-635-47c19-14 35-31 35-36v-10l-22 5c-13 2-32 8-42 12l-19 8 19-32c10-18 34-46 53-62s32-31 29-35c-11-10-48 6-84 38l-34 30v-11c0-11 14-25 55-55l20-15-19-1h-19l-34 26c-31 24-46 21-21-4l12-12h-11c-6 0-23 14-38 32l-27 32 5 43 5 44 18 20 19 21 32-5 33-6 35-27zm645-5v-9h-27l-28 1 19 14c19 14 36 12 36-6zm-10-39c0-12-28-25-36-17-9 9 6 27 22 27 8 0 14-5 14-10zm-600-32c0-21-11-23-28-6s-15 24 8 24h20v-18zm580-22v-24l-115-17-115-18v-8c0-12 8-11 120 6 52 8 96 13 98 11s-9-7-25-10c-43-9-465-84-493-88l-25-3v90l50 7c28 4 140 22 250 42 110 19 212 35 228 35l27 1v-24zm-814-11c10-8 27-15 36-15h18l95-73 96-73 156 28c86 15 158 26 161 24 5-6 23-224 25-316l2-64-58-24c-32-12-83-28-115-34l-57-12h-170l-170-1-38 13-37 14-9 17-10 17 17 257 16 257h11c6 0 20-7 31-15zm231-122c-3-3-20 6-37 19l-32 23 34 5 33 5 3-23c2-13 1-26-1-29zm130 1240c-4-3-7-10-7-15v-8h72l-12 15c-13 16-42 20-53 8zm-149-24c-10-5-18-17-18-25v-15l22 15c12 9 31 16 41 16h18l-6 10c-8 13-35 12-57-1zm162-48c0-6 5-13 10-16l10-6v15c0 9-4 16-10 16-5 0-10-4-10-9zm-134-10c-4-7-5-15-2-18 9-9 19 4 14 18l-4 13-8-13zm38-175c25-20 56-20 82-1l19 14-12 1c-6 0-15-5-19-11l-6-11-22 5c-11 2-30 8-41 12l-20 7 19-16z"/></g><g fill="#437034" transform="matrix(.1 0 0 -.1 0 300)"><path d="M1545 2469c-22-4-93-18-157-30l-116-21-32-19-31-19 6-11 7-10-13-15-12-15 11-11 12-12 68 23c69 22 281 60 340 61h33l6 16 6 16-10 7c-5 3-12 14-16 24l-6 17h-15c-8 0-20 2-28 4-7 2-31 0-53-5zm101-176c9-48 11-179 3-188l-7-6-23 24c-13 13-37 50-54 81l-30 57-3-11c-2-5 6-26 18-45l22-35-4-17-3-18h-127l-22-27c-12-16-25-28-29-28s-16 15-27 33l-20 32v55h-9c-12 0-31-56-31-89 1-14 7-37 15-51s14-37 15-53v-27l-47-30c-26-16-56-33-67-36-32-10-105-72-132-113-28-43-48-110-70-236l-16-90 5-58 5-58 22-32c12-18 42-47 66-66l44-33v-72c-1-39-7-161-14-271l-14-200 12-14c6-8 30-23 54-33l42-19v-58l37-30c21-17 53-36 71-42l33-11 35 6 34 7 10 18 10 19-24 35-24 35 82 4 81 5 10-12c12-16 91-41 169-56l58-10 28 11c49 20 49 59 2 80-15 6-35 17-46 25l-18 14 27 24 27 23-16 189c-9 103-13 191-10 194s56 15 117 26l112 20 3 50c2 27 7 54 11 60 5 5 11 21 14 35l6 25-9 45-8 45 9 10c5 5 9 20 9 32v24l-30 17-29 17-3 30-3 30-22 10-23 10v13c0 7 7 26 15 41l14 29 33 21 33 21h-31l-32-31-32-31-6 31c-4 17-11 34-17 38l-10 6 6-16c11-30 19-86 13-96l-6-9-29 14-29 14-16 67c-27 108-59 157-133 210-25 17-58 35-74 38-16 4-31 11-34 16l-6 9 25 26 24 27 11 43c14 55 14 89-1 191l-12 83h-17l7-37zm-39-214 3-24-14-18-14-18-63-2-63-2-15 26-14 26 7 18 6 18 49-7 48-6 24 9c33 13 44 9 46-20zm-219-114 37-25 38-7c44-7 47-11 36-40l-8-22-38 10c-21 6-55 22-75 36l-38 26v23c0 30 3 30 48-1zm-53-35c4-6 30-24 58-40l52-30h53l7-17c3-10 9-55 12-100l6-83h17v38c0 20-5 64-10 97l-10 60 13 4c6 2 27 19 45 38l32 34 53-24c28-13 66-36 84-51l32-27 29-62c16-34 35-83 42-109l13-48-12-14-12-14-38 5-39 5-12-22-12-22 6-23 6-23-15-12-15-12v-22c0-12 4-26 9-31 4-6 13-25 19-43l11-33-12-4c-7-2-29-6-49-9l-38-5v101l-20 28-20 28-30 7-30 7-1 31-2 32-4-28-5-29-21 6-21 5-31-15-32-15-21-38-22-39v-62h-18c-11 0-38 14-60 30-23 17-45 30-49 30-5 1-18 9-31 20l-24 19 11 86 10 86-9 51c-6 29-15 57-21 63l-12 10 9-30c10-35 11-178 1-216l-7-26-49 5-48 4-8-12c-10-17 1-23 22-12l18 10 30-12c17-7 54-32 82-55l53-41-21-21c-26-26-39-61-39-106v-35l-57 32c-32 18-75 46-95 62l-37 29-17 44-17 45 7 83c8 99 41 241 66 282 30 48 72 83 151 125 81 43 85 45 94 30zm249-2c-15-27-38-48-51-48h-14l3 22 3 22 25 7c14 4 29 7 33 8l8 1-7-12zm334-371-3-22h-60l-3 19-4 20 17 12 18 13 19-10 19-10-3-22zm-90-20-3-22h-60l-3 19-4 20 17 12 18 13 19-10 19-10-3-22zm146 10 18-13-4-20-3-19-24-3-23-4-10 10-9 9 12 26c14 31 18 32 43 14zm-84-58 11-20-12-15c-6-8-19-14-29-14s-23 6-29 14l-12 15 11 20 11 21h38l11-21zm-356 1c17-5 44-12 59-15l28-6 15-34c8-19 14-45 14-59v-25l-14-14-14-14-87-12-87-12-19 17-19 17v26c0 14 9 45 19 67l19 41 23 17c28 19 24 19 63 6zm264-12c7-7 12-18 12-25v-13l-26-12-26-12-14 18-13 19 10 18 10 19h17c10 0 23-5 30-12zm190-30 3-17-20-10-20-11-15 6-16 6v49l32-3 33-3 3-17zm52 3 10-20-16-15c-8-9-22-16-30-16h-15l11 21 12 21-6 14-5 14h28l11-19zm-139-42 11-21-9-8c-4-4-18-11-30-15l-23-6v59l13 5c21 9 26 7 38-14zm-71-13v-25l-20-6-21-7-14 12c-8 7-15 17-15 22 0 9 36 26 58 27l12 1v-24zm133-13c-7-2-21-2-30 0l-18 5h60l-12-5zm42-30c-4-10-10-37-12-60l-5-41-57-10c-31-5-145-25-254-43l-199-32-9 14-8 14 22 7c12 4 61 12 110 18l87 12 6 9 5 9h-23c-13 0-61-7-108-14-47-8-88-12-92-9-13 7-9 41 5 50 9 6 366 67 531 92l8 1-7-17zm35-2c0-6-4-13-10-16l-10-6v15c0 9 5 16 10 16 6 0 10-4 10-9zm-635-47c19-14 35-31 35-36v-10l-22 5c-13 2-32 8-42 12l-19 8 19-32c10-18 34-46 53-62s32-31 29-35c-11-10-48 6-84 38l-34 30v-11c0-11 14-25 55-55l20-15-19-1h-19l-34 26c-31 24-46 21-21-4l12-12h-11c-6 0-23 14-38 32l-27 32 5 43 5 44 18 20 19 21 32-5 33-6 35-27zm645-5v-9h-27l-28 1 19 14c19 14 36 12 36-6zm-10-39c0-12-28-25-36-17-9 9 6 27 22 27 8 0 14-5 14-10zm-600-32c0-21-11-23-28-6s-15 24 8 24h20v-18zm580-22v-24l-115-17-115-18v-8c0-12 8-11 120 6 52 8 96 13 98 11s-9-7-25-10c-43-9-465-84-493-88l-25-3v90l250 41c138 23 262 43 278 43l27 1v-24zm-814-11c10-8 27-15 36-15h18l95-73 96-73 156 28c86 15 158 26 161 24 5-6 23-224 25-316l2-64-58-24c-32-12-83-28-115-34l-57-12h-170l-170-1-38 13-37 14-9 17-10 17 17 257 16 257h11c6 0 20-7 31-15zm231-122c-3-3-20 6-37 19l-32 23 34 5 33 5 3-23c2-13 1-26-1-29zm47 983c25-20 56-20 82-1l19 14-12 1c-6 0-15-5-19-11l-6-11-22 5c-11 2-30 8-41 12l-20 7 19-16zm216-393c-27-19-40-33-40-47 0-6 12 2 28 16 15 14 36 30 47 36l20 11-15 1c-9 0-27-8-40-17zm-276-19c3-9 7-39 7-67l1-52 5 18 4 17h38l15 22c9 12 16 30 16 40v18h-14c-7 0-19-7-26-15s-16-15-21-15h-9v50h-22l6-16zm143 669c-4-3-7-10-7-15v-8h72l-12 15c-13 16-42 20-53 8zm-149-24c-10-5-18-17-18-25v-15l22 15c12 9 31 16 41 16h18l-6 10c-8 13-35 12-57-1zm162-48c0-6 5-13 10-16l10-6v15c0 9-4 16-10 16-5 0-10-4-10-9zm-134-10c-4-7-5-15-2-18 9-9 19 4 14 18l-4 13-8-13z"/></g></g></svg>