<?xml version="1.0" encoding="UTF-8" standalone="no"?>
<!-- Created with Inkscape (http://www.inkscape.org/) -->

<svg
   version="1.1"
   id="svg2"
   width="1440"
   height="1440"
   viewBox="0 0 1440 1440"
   xmlns="http://www.w3.org/2000/svg"
   xmlns:svg="http://www.w3.org/2000/svg">
  <defs
     id="defs6">
    <clipPath
       clipPathUnits="userSpaceOnUse"
       id="clipPath16">
      <path
         d="M 0,1080 H 1080 V 0 H 0 Z"
         id="path14" />
    </clipPath>
  </defs>
  <g
     id="g8"
     transform="matrix(1.3333333,0,0,-1.3333333,0,1440)">
    <g
       id="g10">
      <g
         id="g12"
         clip-path="url(#clipPath16)">
        <g
           id="g18"
           transform="translate(667.2867,417.1019)">
          <path
             d="m 0,0 0.002,0.015 c 4.502,31.953 5.313,65.107 5.312,99.047 0,7.758 -0.042,15.557 -0.092,23.392 v 0.006 0.006 c -0.002,0.222 -0.005,0.444 -0.007,0.666 -0.242,22.496 -0.682,45.195 -1.969,67.654 l 10e-4,-0.017 -10e-4,0.021 c -0.827,15.038 -2.148,31.736 -4.402,47.771 -2.257,16.028 -5.43,31.377 -10.048,43.845 l -0.011,0.031 -0.009,0.026 c -10.524,31.639 -36.003,56.396 -68.449,65.816 l -0.02,0.006 -0.01,0.003 c -15.438,4.317 -32.397,6.734 -49.492,6.733 -0.675,0 -1.349,-0.003 -2.023,-0.011 -16.404,-0.186 -32.885,-2.615 -48.203,-7.793 -15.308,-5.176 -29.462,-13.112 -41.107,-24.312 l -0.007,-0.007 c -9.696,-9.224 -16.834,-20.365 -22.085,-32.371 -5.254,-12.014 -8.63,-24.902 -10.808,-37.717 l -0.001,-0.008 -0.001,-0.006 c -6.092,-37.102 -6.459,-73.44 -6.458,-113.603 0,-2.096 10e-4,-4.203 0.003,-6.321 v 0.004 -0.011 -0.012 c 0.03,-4.152 0.066,-8.315 0.111,-12.484 0.205,-19.059 0.597,-38.242 1.508,-57.196 l 0.001,-0.021 10e-4,-0.018 c 1.249,-20.177 2.362,-41.639 5.685,-62.444 3.327,-20.804 8.858,-40.972 19.074,-58.522 l -0.004,0.006 0.008,-0.013 -0.003,0.004 0.008,-0.012 c 5.637,-9.548 12.581,-17.591 20.477,-24.248 11.845,-9.989 25.817,-16.859 40.765,-21.183 14.28,-4.13 29.458,-5.947 44.624,-5.947 0.714,0 1.428,0.004 2.141,0.012 2.211,0.025 4.421,0.088 6.626,0.188 h 0.005 c 20.985,0.887 41.69,5.053 59.226,13.829 l 1.227,0.608 c 9.255,4.585 17.236,10.335 24.052,16.992 10.25,10.007 17.869,22.048 23.403,35.252 C -5.415,-29.141 -1.953,-14.769 0,0"
             style="fill:#b84c31;fill-opacity:1;fill-rule:nonzero;stroke:none"
             id="path20" />
        </g>
        <g
           id="g22"
           transform="translate(664.7996,539.4887)">
          <path
             d="m 0,0 c 0.275,-42.09 0.288,-82.821 -5.15,-121.352 l -0.002,-0.016 -0.003,-0.025 c -2.509,-19.009 -7.601,-37.082 -16.282,-52.4 -4.341,-7.663 -9.573,-14.644 -15.843,-20.767 -6.272,-6.122 -13.582,-11.392 -22.139,-15.626 l -0.03,-0.015 -0.154,-0.079 -0.012,-0.006 c -16.393,-8.466 -36.489,-12.651 -57.082,-13.508 l -0.02,-10e-4 c -2.12,-0.096 -4.243,-0.157 -6.366,-0.181 -20.312,-0.233 -40.556,2.921 -58.188,10.499 -8.821,3.789 -16.994,8.675 -24.256,14.799 -7.26,6.124 -13.618,13.483 -18.818,22.284 -9.536,16.367 -14.899,35.627 -18.133,55.893 -3.238,20.253 -4.354,41.465 -5.601,61.675 -0.904,18.808 -1.295,37.893 -1.499,56.896 -0.045,4.155 -0.081,8.305 -0.111,12.448 -0.031,42.68 0.07,80.422 6.353,118.662 2.099,12.362 5.345,24.664 10.278,35.938 4.936,11.283 11.541,21.522 20.361,29.91 l 0.006,0.005 0.014,0.014 c 10.705,10.298 23.818,17.694 38.232,22.569 14.408,4.874 30.101,7.207 45.795,7.383 16.997,0.194 33.99,-2.145 49.304,-6.428 30.005,-8.715 53.602,-31.651 63.323,-60.987 l 0.026,-0.079 0.029,-0.078 c 4.324,-11.633 7.457,-26.588 9.663,-42.309 2.212,-15.728 3.522,-32.241 4.341,-47.145 V 67.962 C -0.687,45.694 -0.248,23.109 -0.007,0.657 -0.005,0.438 -0.002,0.219 0,0"
             style="fill:#f9e1b9;fill-opacity:1;fill-rule:nonzero;stroke:none"
             id="path24" />
        </g>
        <g
           id="g26"
           transform="translate(565.8005,393.5882)">
          <path
             d="m 0,0 0.638,-0.203 c 6.569,-2.088 16.496,-5.244 24.481,-5.389 2.831,-0.051 5.181,0.292 6.983,1.02 2.137,0.864 4.45,2.741 4.46,4.268 0.017,2.539 -1.004,3.824 -3.153,5.53 l -12.484,6.494 -2.035,1.058 1.837,1.38 c 0.582,0.438 1.399,0.939 2.346,1.519 1.988,1.219 6.094,3.735 6.269,5.34 -0.349,3.629 -0.659,7.323 -0.959,10.897 -0.258,3.083 -0.517,6.167 -0.803,9.247 -0.63,6.784 -1.159,13.899 -1.672,20.779 -0.353,4.753 -0.719,9.668 -1.115,14.436 -0.149,1.793 -0.346,3.652 -0.537,5.45 l -0.01,0.09 -0.021,0.197 0.033,0.196 13.479,81.336 c -0.979,4.085 -2.058,8.138 -3.206,12.051 -3.016,10.281 -4.717,13.562 -5.443,14.963 l -0.05,0.097 c -1.267,2.445 -2.844,5.487 -5.692,8.834 -3.628,4.265 -8.233,7.774 -14.931,11.378 l -0.908,0.489 0.174,1.027 c 0.224,1.321 0.458,2.642 0.692,3.963 0.467,2.631 0.95,5.351 1.335,8.026 0.163,1.85 0.365,3.865 0.58,6.004 1.743,17.374 4.378,43.629 -7.322,54.743 l -2.347,2.229 3.206,0.258 c 1.431,0.116 1.712,0.366 1.864,0.592 0.359,0.537 0.301,1.54 -0.133,2.284 -0.434,0.745 -1.441,1.199 -2.761,1.245 l -2.058,0.071 0.795,1.925 c 0.281,0.681 0.551,1.63 0.241,2.283 -0.619,1.303 -3.779,1.473 -5.668,1.574 l -0.527,0.029 -0.381,0.37 c -1.509,1.464 -3.168,2.764 -4.933,3.862 -4.771,2.969 -10.293,4.531 -16.413,4.642 -3.91,0.07 -6.928,-0.494 -7.92,-0.68 -4.929,-0.922 -9.836,-2.939 -13.818,-5.679 -4.557,-3.136 -8.397,-7.386 -11.106,-12.292 l -0.274,-0.495 -0.533,-0.173 c -1.026,-0.333 -3.897,-1.834 -4.367,-2.338 -0.569,-0.64 -0.504,-2.228 0.13,-3.146 0.11,-0.158 0.245,-0.303 0.403,-0.43 l 1.333,-1.074 -1.281,-1.137 c -0.379,-0.337 -0.748,-0.625 -1.095,-0.895 -1.142,-0.888 -1.615,-1.255 -1.623,-2.684 -0.002,-0.372 0.073,-0.651 0.223,-0.83 0.097,-0.115 0.276,-0.22 0.504,-0.296 l 0.899,-0.3 0.075,-0.955 c 0.051,-0.654 -0.043,-1.313 -0.28,-1.959 -1.401,-3.82 -2.776,-7.677 -4.105,-11.407 -3.476,-9.754 -7.07,-19.84 -11.322,-29.741 -1.571,-3.658 -3.406,-7.437 -5.349,-11.438 -7.623,-15.699 -16.264,-33.492 -10.992,-49.545 0.166,-0.506 0.327,-0.955 0.483,-1.347 l 2.15,-0.425 c -0.124,-0.674 -0.323,-1.713 -0.573,-2.837 -5.731,-25.948 -2.501,-38.122 -2.266,-38.944 l 0.02,-0.067 c 3.007,-10.095 12.192,-16.547 20.779,-21.527 l 1.019,-0.591 -0.38,-1.126 c -0.069,-0.204 -0.145,-0.386 -0.22,-0.563 -0.109,-0.254 -0.157,-0.373 -0.169,-0.522 -0.292,-3.661 -0.396,-7.56 -0.495,-11.331 -0.072,-2.713 -0.147,-5.519 -0.291,-8.214 -0.487,-9.109 -1.07,-18.364 -1.634,-27.314 -0.6,-9.514 -1.221,-19.352 -1.725,-29.023 -0.051,-0.965 -0.166,-1.968 -0.278,-2.939 -0.136,-1.192 -0.278,-2.424 -0.291,-3.538 l -0.003,-0.18 c -0.008,-0.633 -0.009,-0.959 0.059,-1.234 0.025,-0.076 0.146,-0.434 0.358,-0.753 1.665,-2.513 5.014,-4.233 5.048,-4.25 2.956,-1.494 6.309,-2.607 9.962,-3.305 l 0.506,-0.097 0.327,-0.402 c 0.475,-0.584 0.383,-1.04 0.079,-2.55 -0.069,-0.343 -0.136,-0.664 -0.154,-0.811 -0.184,-2.699 -0.21,-4.622 1.067,-6.425 2.252,-3.179 9.428,-8.788 12.78,-10.338 2.802,-1.295 6.644,-2.138 10.027,-2.199 2.532,-0.046 7.125,0.325 9.442,3.329 2.698,3.499 -0.061,6.598 -4.255,10.595 -0.827,0.789 -1.609,1.534 -2.266,2.257 l -2.298,2.531 3.392,-0.115 c 0.723,-0.025 1.447,-0.044 2.171,-0.057 7.28,-0.132 15.175,0.298 24.136,1.314 l 1.164,0.132 0.351,-1.132 C -8.495,4.671 -8.418,4.308 -8.349,3.988 -8.188,3.237 -8.15,3.058 -7.669,2.706 -6.744,2.03 -3.254,0.983 -1.378,0.42 -0.842,0.259 -0.367,0.117 0,0"
             style="fill:#ffffff;fill-opacity:1;fill-rule:nonzero;stroke:none"
             id="path28" />
        </g>
        <g
           id="g30"
           transform="translate(537.928,506.3743)">
          <path
             d="M 0,0 C -10.17,5.919 -20.34,11.839 -30.51,17.758 -3.42,21.594 23.671,25.43 50.761,29.267 64.083,24.237 77.405,19.207 90.728,14.178 60.485,9.452 30.242,4.726 0,0"
             style="fill:#915e26;fill-opacity:1;fill-rule:nonzero;stroke:none"
             id="path32" />
        </g>
        <g
           id="g34"
           transform="translate(537.928,506.3743)">
          <path
             d="m 0,0 0.708,1.249 c -10.17,5.92 -20.34,11.839 -30.51,17.758 l -0.708,-1.249 0.197,-1.427 c 27.09,3.836 54.18,7.673 81.27,11.509 l -0.196,1.427 -0.496,-1.35 c 13.322,-5.03 26.644,-10.06 39.966,-15.089 l 0.497,1.35 -0.217,1.424 C 60.268,10.876 30.026,6.15 -0.217,1.424 L 0,0 0.708,1.249 0,0 0.217,-1.424 c 30.242,4.726 60.485,9.452 90.727,14.178 0.641,0.1 1.132,0.624 1.198,1.277 0.065,0.654 -0.311,1.267 -0.918,1.497 -13.323,5.029 -26.645,10.059 -39.967,15.089 -0.218,0.082 -0.462,0.109 -0.693,0.077 -27.09,-3.837 -54.18,-7.673 -81.27,-11.509 -0.604,-0.086 -1.083,-0.547 -1.199,-1.153 -0.116,-0.607 0.159,-1.216 0.687,-1.523 10.17,-5.92 20.34,-11.839 30.51,-17.758 0.28,-0.163 0.606,-0.225 0.925,-0.175 z"
             style="fill:#346f31;fill-opacity:1;fill-rule:nonzero;stroke:none"
             id="path36" />
        </g>
        <g
           id="g38"
           transform="translate(572.1835,561.1379)">
          <path
             d="m 0,0 c 3.91,1.257 6.532,0.65 7.825,0.203 7.972,-2.758 10.555,-15.078 9.822,-23.029 -0.343,-3.726 -1.421,-6.572 -1.961,-7.969 -0.576,-1.489 -3.297,-8.524 -8.165,-12.025 -7.552,-5.431 -21.535,-3.264 -29.087,5.425 -10.162,11.691 -4.017,29.827 3.283,36.299 0.9,0.797 3.167,2.808 6.71,3.585 6.132,1.346 11.283,-2.057 12.638,-3.014"
             style="fill:#eb9c2d;fill-opacity:1;fill-rule:nonzero;stroke:none"
             id="path40" />
        </g>
        <g
           id="g42"
           transform="translate(572.5369,559.7421)">
          <path
             d="m 0,0 c 2.258,0.702 4.643,1.006 6.895,0.275 1.913,-0.62 3.49,-1.942 4.718,-3.525 2.763,-3.562 3.938,-8.444 4.278,-12.882 0.355,-4.633 -0.401,-9.039 -2.111,-13.342 -1.504,-3.785 -3.837,-8.149 -7.307,-10.693 -3.633,-2.663 -8.448,-3.152 -12.778,-2.561 -4.862,0.663 -9.659,2.863 -13.226,6.294 -7.447,7.162 -7.689,18.428 -3.741,27.496 1.513,3.476 3.687,6.84 6.731,9.128 4.395,3.302 10.021,3.172 14.71,0.58 0.621,-0.343 1.222,-0.721 1.803,-1.13 1.507,-1.061 2.976,1.408 1.479,2.461 -4.465,3.141 -10.346,4.596 -15.571,2.634 -4.351,-1.633 -7.655,-5.074 -9.988,-9.056 -5.397,-9.212 -6.711,-21.959 -0.188,-30.959 6.349,-8.758 19.306,-13.268 29.411,-8.935 4.898,2.1 8.139,6.758 10.342,11.491 2.009,4.317 3.339,8.898 3.376,13.707 C 18.902,-10.012 15.172,3.495 4.223,3.585 2.552,3.599 0.886,3.287 -0.707,2.792 -2.448,2.25 -1.756,-0.546 0,0"
             style="fill:#b84c31;fill-opacity:1;fill-rule:nonzero;stroke:none"
             id="path44" />
        </g>
        <g
           id="g46"
           transform="translate(542.1979,549.9594)">
          <path
             d="m 0,0 c -7.533,3.758 -17.522,1.994 -23.665,-4.164 -9.284,-9.308 -7.025,-25.893 0.932,-32.44 4.275,-3.518 9.721,-3.745 12.767,-3.872 2.493,-0.104 11.291,-0.471 16.486,4.722 C 14.7,-27.577 13.049,-6.51 0,0"
             style="fill:#e36c48;fill-opacity:1;fill-rule:nonzero;stroke:none"
             id="path48" />
        </g>
        <g
           id="g50"
           transform="translate(542.937,551.1902)">
          <path
             d="m 0,0 c -9.802,4.801 -22.489,1.271 -28.35,-8.084 -5.047,-8.055 -4.698,-19.704 0.841,-27.438 1.409,-1.967 3.132,-3.669 5.226,-4.879 2.438,-1.409 5.149,-2.128 7.916,-2.477 3.627,-0.459 7.417,-0.477 11.027,0.113 4.661,0.763 9.07,2.873 11.853,6.848 2.267,3.239 3.316,7.276 3.608,11.192 0.639,8.56 -2.476,17.908 -9.475,23.1 C 1.811,-1.006 0.925,-0.468 0,0 -1.629,0.825 -3.116,-1.633 -1.478,-2.462 5.444,-5.967 8.998,-13.747 9.329,-21.329 c 0.154,-3.517 -0.312,-7.191 -1.728,-10.4 -1.584,-3.587 -4.356,-6.126 -8.091,-7.378 -3.277,-1.099 -6.721,-1.302 -10.145,-1.161 -4.433,0.181 -9.077,0.848 -12.48,4.018 -6.029,5.613 -7.32,15.632 -4.542,23.157 3.369,9.129 13.702,14.211 22.944,11.812 1.112,-0.289 2.201,-0.674 3.235,-1.181 C -0.788,-2.8 0.049,-2.689 0.475,-1.98 0.845,-1.365 0.694,-0.34 0,0"
             style="fill:#b84c31;fill-opacity:1;fill-rule:nonzero;stroke:none"
             id="path52" />
        </g>
        <g
           id="g54"
           transform="translate(539.3727,541.3011)">
          <path
             d="M 0,0 C -0.467,-1.888 -2.918,-2.893 -5.474,-2.243 -8.03,-1.594 -9.724,0.463 -9.257,2.351 -8.79,4.24 -6.339,5.244 -3.783,4.595 -1.227,3.946 0.467,1.888 0,0"
             style="fill:#b84c31;fill-opacity:1;fill-rule:nonzero;stroke:none"
             id="path56" />
        </g>
        <g
           id="g58"
           transform="translate(533.4092,565.979)">
          <path
             d="m 0,0 c 0.077,0.052 0.535,0.359 1.024,0.238 1.651,-0.409 1.919,-5.283 1.959,-6.006 0.118,-2.149 -0.157,-3.379 0.32,-3.568 0.462,-0.183 1.105,0.815 2.013,1.751 2.626,2.708 6.973,4.38 8.612,3.072 0.509,-0.407 0.828,-1.133 0.853,-2.293 0.079,-3.718 -2.596,-7.021 -4.895,-8.61 -1.384,-0.956 -3.644,-2.456 -5.729,-1.959 -0.306,0.073 -0.774,0.229 -1.114,-0.019 -0.884,-0.645 0.437,-3.042 -0.616,-4.084 -0.32,-0.316 -0.886,-0.535 -1.288,-0.374 -1.143,0.457 -0.435,3.778 -0.388,7.609 C 0.85,-6.253 -1.991,-1.336 0,0"
             style="fill:#346f31;fill-opacity:1;fill-rule:nonzero;stroke:none"
             id="path60" />
        </g>
        <g
           id="g62"
           transform="translate(584.7385,534.0986)">
          <path
             d="m 0,0 c -7.533,3.758 -17.522,1.994 -23.664,-4.164 -9.284,-9.308 -7.026,-25.893 0.931,-32.44 4.275,-3.518 9.721,-3.745 12.767,-3.872 2.493,-0.104 11.291,-0.471 16.486,4.722 C 14.7,-27.578 13.05,-6.51 0,0"
             style="fill:#e36c48;fill-opacity:1;fill-rule:nonzero;stroke:none"
             id="path64" />
        </g>
        <g
           id="g66"
           transform="translate(585.4777,535.3295)">
          <path
             d="m 0,0 c -9.802,4.801 -22.489,1.271 -28.35,-8.084 -5.047,-8.055 -4.698,-19.704 0.841,-27.438 1.409,-1.967 3.132,-3.669 5.226,-4.879 2.438,-1.409 5.149,-2.128 7.916,-2.478 3.627,-0.458 7.417,-0.476 11.027,0.114 4.661,0.763 9.07,2.873 11.853,6.848 2.267,3.239 3.316,7.276 3.608,11.192 0.639,8.56 -2.476,17.908 -9.475,23.1 C 1.811,-1.006 0.925,-0.468 0,0 -1.629,0.825 -3.116,-1.633 -1.478,-2.462 5.444,-5.967 8.998,-13.747 9.329,-21.329 c 0.154,-3.517 -0.312,-7.191 -1.728,-10.4 -1.584,-3.587 -4.356,-6.126 -8.091,-7.378 -3.277,-1.099 -6.721,-1.302 -10.145,-1.161 -4.433,0.181 -9.077,0.848 -12.48,4.018 -6.029,5.613 -7.32,15.632 -4.542,23.157 3.369,9.129 13.702,14.211 22.944,11.812 1.112,-0.289 2.201,-0.674 3.235,-1.181 C -0.788,-2.8 0.049,-2.689 0.475,-1.98 0.845,-1.365 0.694,-0.34 0,0"
             style="fill:#b84c31;fill-opacity:1;fill-rule:nonzero;stroke:none"
             id="path68" />
        </g>
        <g
           id="g70"
           transform="translate(613.5707,523.8379)">
          <path
             d="M 0,0 C 3.077,0.957 6.454,-0.451 8.093,-3.125 9.72,-5.777 9.651,-9.621 7.57,-11.45 c -1.02,-0.895 -2.342,-1.356 -3.661,-1.639 -1.518,-0.326 -4.457,-0.912 -6.708,1.001 -2.023,1.719 -2.478,4.604 -1.958,6.844 C -4.207,-2.882 -2.462,-0.766 0,0"
             style="fill:#b3c150;fill-opacity:1;fill-rule:nonzero;stroke:none"
             id="path72" />
        </g>
        <g
           id="g74"
           transform="translate(613.9241,522.4421)">
          <path
             d="M 0,0 C 2.274,0.672 4.852,-0.109 6.3,-2.124 6.934,-3.007 7.334,-4.156 7.431,-5.18 7.543,-6.368 7.355,-7.436 6.79,-8.377 6.2,-9.36 4.792,-9.912 3.618,-10.202 2.512,-10.475 1.659,-10.629 0.59,-10.595 c -1.189,0.037 -2.349,0.443 -3.203,1.368 -0.769,0.832 -1.188,2.031 -1.258,3.086 C -4.042,-3.552 -2.639,-0.863 0,0 0.73,0.239 1.222,0.967 1.024,1.754 0.842,2.474 0.027,3.032 -0.707,2.792 -4.111,1.678 -6.454,-1.406 -6.71,-5.017 c -0.256,-3.626 1.811,-7.323 5.437,-8.212 1.555,-0.381 3.143,-0.266 4.699,0.04 1.763,0.346 3.559,0.939 4.897,2.208 2.508,2.38 2.409,6.579 0.926,9.477 C 7.416,2.078 3.101,3.917 -0.707,2.792 -2.458,2.274 -1.763,-0.521 0,0"
             style="fill:#346f31;fill-opacity:1;fill-rule:nonzero;stroke:none"
             id="path76" />
        </g>
        <g
           id="g78"
           transform="translate(623.4912,535.9303)">
          <path
             d="M 0,0 C 3.077,0.957 6.454,-0.451 8.093,-3.125 9.72,-5.777 9.651,-9.621 7.57,-11.45 c -1.02,-0.895 -2.342,-1.356 -3.661,-1.639 -1.518,-0.326 -4.457,-0.912 -6.708,1.001 -2.023,1.719 -2.478,4.604 -1.958,6.844 C -4.207,-2.882 -2.462,-0.766 0,0"
             style="fill:#b3c150;fill-opacity:1;fill-rule:nonzero;stroke:none"
             id="path80" />
        </g>
        <g
           id="g82"
           transform="translate(623.8446,534.5344)">
          <path
             d="M 0,0 C 2.274,0.672 4.852,-0.109 6.3,-2.124 6.934,-3.007 7.334,-4.156 7.431,-5.18 7.543,-6.368 7.355,-7.436 6.79,-8.377 6.2,-9.36 4.792,-9.912 3.618,-10.202 2.512,-10.474 1.659,-10.629 0.59,-10.595 c -1.189,0.037 -2.349,0.443 -3.203,1.368 -0.768,0.832 -1.188,2.031 -1.258,3.086 C -4.042,-3.552 -2.639,-0.863 0,0 0.73,0.239 1.222,0.967 1.024,1.754 0.842,2.474 0.027,3.032 -0.707,2.792 -4.111,1.678 -6.454,-1.406 -6.71,-5.017 c -0.256,-3.626 1.811,-7.323 5.437,-8.212 1.555,-0.381 3.143,-0.266 4.699,0.04 1.763,0.346 3.559,0.939 4.897,2.208 2.508,2.38 2.409,6.579 0.926,9.477 C 7.416,2.078 3.101,3.917 -0.707,2.792 -2.457,2.274 -1.763,-0.521 0,0"
             style="fill:#346f31;fill-opacity:1;fill-rule:nonzero;stroke:none"
             id="path84" />
        </g>
        <g
           id="g86"
           transform="translate(614.6985,537.666)">
          <path
             d="m 0,0 c 3.077,0.957 6.454,-0.451 8.093,-3.125 1.626,-2.652 1.558,-6.496 -0.523,-8.325 -1.02,-0.895 -2.342,-1.356 -3.661,-1.639 -1.518,-0.326 -4.457,-0.912 -6.708,1.001 -2.023,1.719 -2.479,4.604 -1.958,6.844 C -4.207,-2.882 -2.462,-0.766 0,0"
             style="fill:#b3c150;fill-opacity:1;fill-rule:nonzero;stroke:none"
             id="path88" />
        </g>
        <g
           id="g90"
           transform="translate(615.0518,536.2701)">
          <path
             d="M 0,0 C 2.274,0.672 4.852,-0.109 6.3,-2.124 6.934,-3.007 7.334,-4.156 7.431,-5.18 7.543,-6.368 7.355,-7.436 6.79,-8.377 6.2,-9.36 4.792,-9.912 3.618,-10.202 2.512,-10.475 1.659,-10.629 0.59,-10.595 c -1.189,0.037 -2.349,0.443 -3.203,1.368 -0.768,0.832 -1.188,2.031 -1.258,3.086 C -4.042,-3.552 -2.639,-0.863 0,0 0.73,0.239 1.222,0.967 1.024,1.754 0.842,2.474 0.027,3.032 -0.707,2.792 -4.111,1.678 -6.454,-1.406 -6.71,-5.017 c -0.256,-3.626 1.811,-7.323 5.437,-8.212 1.555,-0.381 3.143,-0.266 4.699,0.04 1.763,0.346 3.559,0.939 4.897,2.208 2.508,2.38 2.409,6.579 0.926,9.477 C 7.416,2.078 3.101,3.917 -0.707,2.792 -2.457,2.274 -1.763,-0.521 0,0"
             style="fill:#346f31;fill-opacity:1;fill-rule:nonzero;stroke:none"
             id="path92" />
        </g>
        <g
           id="g94"
           transform="translate(601.5001,529.4347)">
          <path
             d="m 0,0 c 3.077,0.957 6.454,-0.451 8.093,-3.125 1.626,-2.652 1.558,-6.496 -0.523,-8.325 -1.02,-0.895 -2.342,-1.356 -3.661,-1.639 -1.518,-0.326 -4.457,-0.912 -6.708,1.001 -2.023,1.719 -2.478,4.605 -1.958,6.844 C -4.207,-2.882 -2.462,-0.766 0,0"
             style="fill:#b3c150;fill-opacity:1;fill-rule:nonzero;stroke:none"
             id="path96" />
        </g>
        <g
           id="g98"
           transform="translate(601.8533,528.0389)">
          <path
             d="M 0,0 C 2.274,0.672 4.852,-0.109 6.3,-2.124 6.934,-3.007 7.334,-4.156 7.431,-5.18 7.543,-6.368 7.355,-7.436 6.79,-8.377 6.2,-9.36 4.792,-9.912 3.618,-10.202 2.512,-10.475 1.659,-10.629 0.59,-10.595 c -1.189,0.037 -2.349,0.443 -3.203,1.368 -0.768,0.832 -1.188,2.031 -1.258,3.086 C -4.042,-3.552 -2.639,-0.863 0,0 0.73,0.239 1.222,0.967 1.024,1.754 0.842,2.474 0.027,3.032 -0.707,2.792 -4.111,1.678 -6.454,-1.406 -6.71,-5.017 c -0.256,-3.626 1.811,-7.323 5.437,-8.212 1.555,-0.381 3.143,-0.266 4.699,0.04 1.763,0.346 3.559,0.939 4.897,2.208 2.508,2.38 2.409,6.579 0.926,9.477 C 7.416,2.078 3.101,3.917 -0.707,2.792 -2.457,2.274 -1.763,-0.521 0,0"
             style="fill:#346f31;fill-opacity:1;fill-rule:nonzero;stroke:none"
             id="path100" />
        </g>
        <g
           id="g102"
           transform="translate(590.196,529.7039)">
          <path
             d="M 0,0 C 3.077,0.957 6.454,-0.451 8.093,-3.125 9.72,-5.777 9.651,-9.621 7.57,-11.45 c -1.02,-0.895 -2.342,-1.356 -3.661,-1.639 -1.518,-0.326 -4.457,-0.912 -6.708,1.001 -2.023,1.719 -2.478,4.604 -1.958,6.844 C -4.207,-2.882 -2.462,-0.766 0,0"
             style="fill:#b3c150;fill-opacity:1;fill-rule:nonzero;stroke:none"
             id="path104" />
        </g>
        <g
           id="g106"
           transform="translate(590.5494,528.308)">
          <path
             d="M 0,0 C 2.274,0.672 4.852,-0.109 6.3,-2.124 6.934,-3.007 7.334,-4.156 7.431,-5.18 7.543,-6.368 7.355,-7.436 6.79,-8.377 6.2,-9.36 4.792,-9.912 3.618,-10.202 2.512,-10.475 1.659,-10.629 0.59,-10.595 c -1.189,0.037 -2.349,0.443 -3.203,1.368 -0.769,0.832 -1.188,2.031 -1.258,3.086 C -4.042,-3.552 -2.639,-0.863 0,0 0.73,0.239 1.222,0.967 1.024,1.754 0.842,2.474 0.027,3.032 -0.707,2.792 -4.111,1.678 -6.454,-1.406 -6.71,-5.017 c -0.256,-3.626 1.811,-7.323 5.437,-8.212 1.554,-0.381 3.143,-0.266 4.699,0.04 1.763,0.346 3.559,0.939 4.897,2.208 2.508,2.38 2.409,6.579 0.926,9.477 C 7.416,2.078 3.101,3.917 -0.707,2.792 -2.457,2.274 -1.763,-0.521 0,0"
             style="fill:#346f31;fill-opacity:1;fill-rule:nonzero;stroke:none"
             id="path108" />
        </g>
        <g
           id="g110"
           transform="translate(585.9084,539.1589)">
          <path
             d="M 0,0 C 3.077,0.957 6.454,-0.451 8.093,-3.125 9.72,-5.777 9.651,-9.621 7.57,-11.45 c -1.02,-0.895 -2.342,-1.356 -3.661,-1.639 -1.518,-0.326 -4.457,-0.912 -6.708,1.001 -2.023,1.719 -2.478,4.604 -1.958,6.844 C -4.207,-2.882 -2.462,-0.766 0,0"
             style="fill:#b3c150;fill-opacity:1;fill-rule:nonzero;stroke:none"
             id="path112" />
        </g>
        <g
           id="g114"
           transform="translate(586.2618,537.7632)">
          <path
             d="M 0,0 C 2.274,0.672 4.852,-0.109 6.3,-2.124 6.934,-3.007 7.334,-4.156 7.431,-5.18 7.543,-6.368 7.355,-7.436 6.79,-8.377 6.2,-9.36 4.792,-9.912 3.619,-10.202 c -1.107,-0.273 -1.96,-0.427 -3.029,-0.393 -1.189,0.037 -2.349,0.443 -3.203,1.368 -0.768,0.832 -1.188,2.031 -1.258,3.086 C -4.042,-3.552 -2.639,-0.863 0,0 0.73,0.239 1.222,0.967 1.024,1.754 0.842,2.474 0.027,3.032 -0.707,2.792 -4.111,1.678 -6.454,-1.406 -6.71,-5.017 c -0.256,-3.626 1.811,-7.323 5.437,-8.212 1.555,-0.381 3.143,-0.267 4.699,0.04 1.763,0.346 3.559,0.939 4.897,2.208 2.508,2.38 2.409,6.579 0.926,9.477 C 7.416,2.078 3.101,3.917 -0.707,2.792 -2.457,2.274 -1.763,-0.521 0,0"
             style="fill:#346f31;fill-opacity:1;fill-rule:nonzero;stroke:none"
             id="path116" />
        </g>
        <g
           id="g118"
           transform="translate(589.5468,552.3096)">
          <path
             d="M 0,0 C 3.077,0.957 6.454,-0.451 8.093,-3.125 9.72,-5.777 9.651,-9.621 7.57,-11.45 c -1.02,-0.895 -2.342,-1.356 -3.661,-1.639 -1.518,-0.326 -4.457,-0.912 -6.708,1.001 -2.023,1.719 -2.479,4.604 -1.958,6.844 C -4.207,-2.882 -2.462,-0.766 0,0"
             style="fill:#b3c150;fill-opacity:1;fill-rule:nonzero;stroke:none"
             id="path120" />
        </g>
        <g
           id="g122"
           transform="translate(589.9,550.9137)">
          <path
             d="M 0,0 C 2.274,0.672 4.852,-0.109 6.3,-2.124 6.934,-3.007 7.334,-4.156 7.431,-5.18 7.543,-6.368 7.355,-7.435 6.79,-8.377 6.2,-9.36 4.792,-9.912 3.619,-10.202 c -1.107,-0.272 -1.96,-0.427 -3.029,-0.393 -1.189,0.037 -2.349,0.443 -3.203,1.368 -0.768,0.832 -1.188,2.031 -1.258,3.086 C -4.042,-3.552 -2.639,-0.863 0,0 0.73,0.239 1.222,0.967 1.024,1.754 0.842,2.474 0.027,3.032 -0.707,2.792 -4.111,1.678 -6.454,-1.406 -6.71,-5.017 c -0.256,-3.626 1.811,-7.323 5.437,-8.212 1.555,-0.381 3.143,-0.266 4.699,0.04 1.763,0.347 3.559,0.939 4.897,2.208 2.508,2.38 2.409,6.579 0.926,9.477 C 7.416,2.078 3.101,3.917 -0.707,2.792 -2.457,2.275 -1.763,-0.521 0,0"
             style="fill:#346f31;fill-opacity:1;fill-rule:nonzero;stroke:none"
             id="path124" />
        </g>
        <g
           id="g126"
           transform="translate(614.5793,549.3591)">
          <path
             d="M 0,0 C 3.077,0.957 6.454,-0.451 8.093,-3.125 9.72,-5.777 9.651,-9.621 7.57,-11.45 c -1.02,-0.895 -2.342,-1.356 -3.661,-1.639 -1.518,-0.326 -4.457,-0.912 -6.708,1.001 -2.023,1.718 -2.478,4.604 -1.958,6.844 C -4.207,-2.882 -2.462,-0.766 0,0"
             style="fill:#b3c150;fill-opacity:1;fill-rule:nonzero;stroke:none"
             id="path128" />
        </g>
        <g
           id="g130"
           transform="translate(614.9326,547.9633)">
          <path
             d="M 0,0 C 2.274,0.672 4.852,-0.109 6.3,-2.124 6.934,-3.007 7.334,-4.156 7.431,-5.18 7.543,-6.368 7.355,-7.436 6.79,-8.377 6.2,-9.36 4.792,-9.912 3.619,-10.202 c -1.107,-0.273 -1.96,-0.427 -3.029,-0.393 -1.189,0.037 -2.349,0.443 -3.203,1.368 -0.768,0.832 -1.188,2.031 -1.258,3.086 C -4.042,-3.552 -2.639,-0.863 0,0 0.73,0.239 1.222,0.967 1.024,1.754 0.842,2.474 0.027,3.032 -0.707,2.792 -4.111,1.678 -6.454,-1.406 -6.71,-5.017 c -0.256,-3.626 1.811,-7.323 5.437,-8.212 1.555,-0.381 3.143,-0.266 4.699,0.04 1.763,0.346 3.559,0.939 4.897,2.208 2.508,2.38 2.409,6.579 0.926,9.477 C 7.416,2.078 3.101,3.917 -0.707,2.792 -2.457,2.274 -1.763,-0.521 0,0"
             style="fill:#346f31;fill-opacity:1;fill-rule:nonzero;stroke:none"
             id="path132" />
        </g>
        <g
           id="g134"
           transform="translate(615.675,549.9719)">
          <path
             d="m 0,0 c 0.492,3.225 1.486,6.383 3.075,9.228 2.491,4.46 6.325,7.825 10.989,9.786 0.709,0.299 0.889,1.341 0.545,1.962 -0.412,0.744 -1.224,0.851 -1.936,0.552 C 4.206,17.967 -1.347,9.867 -2.727,0.815 -2.844,0.048 -2.571,-0.734 -1.766,-0.974 -1.106,-1.171 -0.118,-0.774 0,0"
             style="fill:#346f31;fill-opacity:1;fill-rule:nonzero;stroke:none"
             id="path136" />
        </g>
        <g
           id="g138"
           transform="translate(616.1213,552.6542)">
          <path
             d="m 0,0 c 1.146,6.498 0.336,13.11 -2.377,19.115 -0.761,1.685 -3.238,0.27 -2.48,-1.41 C -2.49,12.466 -1.726,6.491 -2.727,0.815 -2.862,0.05 -2.559,-0.738 -1.766,-0.974 -1.092,-1.175 -0.136,-0.77 0,0"
             style="fill:#346f31;fill-opacity:1;fill-rule:nonzero;stroke:none"
             id="path140" />
        </g>
        <g
           id="g142"
           transform="translate(603.933,555.6141)">
          <path
             d="m 0,0 c 3.077,0.957 6.454,-0.451 8.093,-3.125 1.626,-2.652 1.558,-6.496 -0.523,-8.325 -1.02,-0.895 -2.342,-1.356 -3.661,-1.639 -1.518,-0.326 -4.457,-0.912 -6.708,1.001 -2.023,1.719 -2.478,4.604 -1.958,6.844 C -4.207,-2.882 -2.462,-0.766 0,0"
             style="fill:#b3c150;fill-opacity:1;fill-rule:nonzero;stroke:none"
             id="path144" />
        </g>
        <g
           id="g146"
           transform="translate(604.2864,554.2182)">
          <path
             d="M 0,0 C 2.274,0.672 4.852,-0.109 6.3,-2.124 6.934,-3.007 7.334,-4.156 7.431,-5.18 7.543,-6.368 7.355,-7.436 6.79,-8.377 6.2,-9.36 4.792,-9.912 3.618,-10.202 2.512,-10.475 1.659,-10.629 0.59,-10.595 c -1.189,0.037 -2.349,0.443 -3.203,1.368 -0.768,0.832 -1.188,2.031 -1.258,3.086 C -4.042,-3.552 -2.639,-0.863 0,0 0.73,0.239 1.222,0.967 1.024,1.754 0.842,2.474 0.027,3.032 -0.707,2.792 -4.111,1.678 -6.454,-1.406 -6.71,-5.017 c -0.256,-3.626 1.811,-7.323 5.437,-8.212 1.555,-0.381 3.143,-0.266 4.699,0.04 1.763,0.346 3.559,0.939 4.897,2.208 2.508,2.38 2.409,6.579 0.926,9.477 C 7.416,2.078 3.101,3.917 -0.707,2.792 -2.457,2.274 -1.763,-0.521 0,0"
             style="fill:#346f31;fill-opacity:1;fill-rule:nonzero;stroke:none"
             id="path148" />
        </g>
        <g
           id="g150"
           transform="translate(599.9785,542.1533)">
          <path
             d="M 0,0 C 3.077,0.957 6.454,-0.451 8.093,-3.125 9.72,-5.777 9.651,-9.621 7.57,-11.45 c -1.02,-0.895 -2.342,-1.356 -3.661,-1.639 -1.518,-0.326 -4.457,-0.912 -6.708,1.001 -2.023,1.719 -2.479,4.604 -1.958,6.844 C -4.207,-2.882 -2.462,-0.766 0,0"
             style="fill:#b3c150;fill-opacity:1;fill-rule:nonzero;stroke:none"
             id="path152" />
        </g>
        <g
           id="g154"
           transform="translate(600.3318,540.7574)">
          <path
             d="M 0,0 C 2.274,0.672 4.852,-0.109 6.3,-2.124 6.934,-3.007 7.334,-4.156 7.431,-5.18 7.543,-6.368 7.355,-7.436 6.79,-8.377 6.2,-9.36 4.792,-9.912 3.619,-10.202 c -1.107,-0.273 -1.96,-0.427 -3.029,-0.393 -1.189,0.037 -2.349,0.443 -3.203,1.368 -0.768,0.832 -1.188,2.031 -1.258,3.086 C -4.042,-3.552 -2.639,-0.863 0,0 0.73,0.239 1.222,0.967 1.024,1.754 0.842,2.474 0.027,3.032 -0.707,2.792 -4.111,1.678 -6.454,-1.406 -6.71,-5.017 c -0.256,-3.626 1.811,-7.323 5.437,-8.212 1.555,-0.381 3.143,-0.266 4.699,0.04 1.763,0.346 3.559,0.939 4.897,2.208 2.508,2.38 2.409,6.579 0.926,9.477 C 7.416,2.078 3.101,3.917 -0.707,2.792 -2.457,2.274 -1.763,-0.521 0,0"
             style="fill:#346f31;fill-opacity:1;fill-rule:nonzero;stroke:none"
             id="path156" />
        </g>
        <g
           id="g158"
           transform="translate(553.2129,537.5062)">
          <path
             d="m 0,0 c -2.798,2.354 -5.15,2.743 -6.36,2.813 -7.454,0.431 -13.63,-8.813 -15.646,-15.59 -0.945,-3.176 -0.996,-5.878 -1.013,-7.208 -0.017,-1.418 -0.099,-8.115 2.747,-12.636 4.414,-7.014 16.611,-9.963 25.673,-5.382 12.194,6.165 13.117,23.136 9.253,30.92 -0.495,0.995 -1.683,3.405 -4.331,5.214 C 6.194,0.951 1.521,0.261 0.072,-0.013 0.508,1.13 1.063,3.01 1.045,5.38 1.03,7.443 0.587,9.107 0.205,10.193"
             style="fill:#eb9c2d;fill-opacity:1;fill-rule:nonzero;stroke:none"
             id="path160" />
        </g>
        <g
           id="g162"
           transform="translate(554.2357,538.5065)">
          <path
             d="m 0,0 c -2.026,1.668 -4.279,2.922 -6.904,3.215 -2.183,0.243 -4.405,-0.341 -6.332,-1.367 -4.317,-2.3 -7.497,-6.707 -9.55,-11.087 -1.959,-4.181 -2.79,-8.624 -2.668,-13.24 0.125,-4.763 1.04,-9.874 4.197,-13.582 3.142,-3.689 7.936,-5.651 12.601,-6.329 5.043,-0.732 10.423,0.114 14.846,2.743 7.724,4.591 11.21,13.923 10.868,22.69 -0.14,3.593 -0.866,7.206 -2.597,10.373 C 11.786,-1.693 6.659,0.974 1.188,0.682 0.353,0.638 -0.482,0.536 -1.304,0.383 c 0.573,-0.601 1.145,-1.203 1.717,-1.804 1.309,3.5 1.362,7.438 0.147,10.972 -0.598,1.736 -3.359,1.04 -2.755,-0.716 1.067,-3.102 1.029,-6.37 -0.119,-9.44 -0.413,-1.104 0.739,-1.986 1.717,-1.804 4.08,0.758 8.69,-0.363 11.492,-3.905 1.941,-2.454 2.792,-5.459 3.169,-8.573 0.874,-7.22 -1.144,-15.402 -6.677,-20.355 -6.478,-5.798 -17.247,-5.997 -24.232,-0.999 -3.592,2.571 -5.081,6.623 -5.58,10.922 -0.427,3.683 -0.296,7.575 0.759,11.133 1.211,4.08 3.471,8.048 6.494,11.021 1.422,1.398 3.099,2.632 5.02,3.205 1.712,0.51 3.282,0.434 4.847,-0.121 1.184,-0.421 2.289,-1.121 3.259,-1.92 0.595,-0.49 1.411,-0.622 2.01,-0.036 C 0.465,-1.547 0.599,-0.493 0,0"
             style="fill:#346f31;fill-opacity:1;fill-rule:nonzero;stroke:none"
             id="path164" />
        </g>
        <g
           id="g166"
           transform="translate(538.1451,506.2264)">
          <path
             d="m 0,0 c -0.101,-13.143 -0.202,-26.285 -0.303,-39.428 30.183,5.399 60.365,10.798 90.548,16.198 0.101,12.496 0.202,24.992 0.303,37.488 C 60.365,9.506 30.183,4.753 0,0"
             style="fill:#c18b49;fill-opacity:1;fill-rule:nonzero;stroke:none"
             id="path168" />
        </g>
        <g
           id="g170"
           transform="translate(538.1451,506.2264)">
          <path
             d="m 0,0 -1.421,0.011 c -0.101,-13.142 -0.202,-26.285 -0.303,-39.428 -0.003,-0.427 0.182,-0.835 0.504,-1.111 0.322,-0.276 0.749,-0.393 1.164,-0.318 30.183,5.399 60.365,10.798 90.548,16.197 0.676,0.121 1.168,0.711 1.174,1.407 0.101,12.496 0.202,24.992 0.303,37.488 0.004,0.423 -0.177,0.827 -0.492,1.103 -0.315,0.276 -0.736,0.398 -1.147,0.333 C 60.147,10.929 29.964,6.176 -0.218,1.424 -0.905,1.315 -1.416,0.716 -1.421,0.011 L 0,0 0.218,-1.424 c 30.183,4.753 60.365,9.506 90.548,14.259 l -0.218,1.423 -1.421,0.012 C 89.026,1.774 88.924,-10.722 88.823,-23.219 l 1.422,-0.011 -0.248,1.418 C 59.815,-27.211 29.633,-32.61 -0.55,-38.009 l 0.247,-1.419 1.422,-0.011 C 1.22,-26.296 1.32,-13.154 1.421,-0.011 L 0,0 0.218,-1.424 Z"
             style="fill:#346f31;fill-opacity:1;fill-rule:nonzero;stroke:none"
             id="path172" />
        </g>
        <g
           id="g174"
           transform="translate(507.3898,524.1174)">
          <path
             d="m 0,0 c -0.196,-11.14 -0.392,-22.279 -0.588,-33.419 10.314,-7.96 20.627,-15.92 30.941,-23.88 0.066,6.207 0.131,12.414 0.196,18.62 0.072,6.823 0.143,13.645 0.215,20.467 C 20.509,-12.141 10.255,-6.071 0,0"
             style="fill:#c18b49;fill-opacity:1;fill-rule:nonzero;stroke:none"
             id="path176" />
        </g>
        <g
           id="g178"
           transform="translate(507.3898,524.1174)">
          <path
             d="m 0,0 -1.421,0.026 c -0.196,-11.14 -0.392,-22.28 -0.589,-33.419 -0.008,-0.458 0.202,-0.895 0.561,-1.172 10.313,-7.96 20.627,-15.92 30.941,-23.88 0.429,-0.331 1.001,-0.388 1.486,-0.148 0.484,0.24 0.791,0.732 0.797,1.279 0.065,6.207 0.13,12.413 0.195,18.62 0.072,6.822 0.144,13.645 0.216,20.467 0.005,0.519 -0.263,0.998 -0.705,1.259 C 21.226,-10.897 10.972,-4.827 0.717,1.244 0.282,1.501 -0.258,1.506 -0.697,1.256 -1.135,1.006 -1.412,0.536 -1.421,0.026 L 0,0 -0.717,-1.244 c 10.255,-6.071 20.51,-12.141 30.764,-18.212 l 0.717,1.244 -1.421,0.016 c -0.072,-6.823 -0.144,-13.645 -0.215,-20.468 -0.066,-6.206 -0.131,-12.413 -0.196,-18.619 l 1.421,-0.016 0.861,1.147 C 20.9,-48.193 10.587,-40.233 0.273,-32.273 l -0.861,-1.146 1.421,-0.026 c 0.196,11.14 0.392,22.28 0.588,33.419 L 0,0 -0.717,-1.244 Z"
             style="fill:#346f31;fill-opacity:1;fill-rule:nonzero;stroke:none"
             id="path180" />
        </g>
        <g
           id="g182"
           transform="translate(538.5191,484.5818)">
          <path
             d="M 0,0 C 29.867,4.926 59.734,9.853 89.601,14.779"
             style="fill:#c18b49;fill-opacity:1;fill-rule:nonzero;stroke:none"
             id="path184" />
        </g>
        <g
           id="g186"
           transform="translate(538.7474,483.1598)">
          <path
             d="m 0,0 c 29.867,4.926 59.734,9.853 89.601,14.779 0.775,0.128 1.301,0.868 1.175,1.654 -0.126,0.785 -0.857,1.318 -1.632,1.19 C 59.277,12.697 29.41,7.77 -0.457,2.844 -1.232,2.716 -1.757,1.976 -1.631,1.191 -1.505,0.405 -0.775,-0.128 0,0"
             style="fill:#346f31;fill-opacity:1;fill-rule:nonzero;stroke:none"
             id="path188" />
        </g>
        <g
           id="g190"
           transform="translate(538.5153,493.5236)">
          <path
             d="M 0,0 C 11.826,1.774 23.652,3.548 35.478,5.322"
             style="fill:#c18b49;fill-opacity:1;fill-rule:nonzero;stroke:none"
             id="path192" />
        </g>
        <g
           id="g194"
           transform="translate(538.7234,492.0984)">
          <path
             d="m 0,0 c 11.826,1.774 23.652,3.548 35.478,5.322 0.777,0.116 1.313,0.848 1.198,1.636 -0.115,0.787 -0.837,1.33 -1.614,1.214 C 23.236,6.398 11.41,4.624 -0.416,2.85 -1.193,2.734 -1.729,2.001 -1.614,1.214 -1.499,0.427 -0.777,-0.116 0,0"
             style="fill:#346f31;fill-opacity:1;fill-rule:nonzero;stroke:none"
             id="path196" />
        </g>
        <g
           id="g198"
           transform="translate(592.603,482.2722)">
          <path
             d="M 0,0 C 11.826,1.774 23.652,3.548 35.478,5.322"
             style="fill:#c18b49;fill-opacity:1;fill-rule:nonzero;stroke:none"
             id="path200" />
        </g>
        <g
           id="g202"
           transform="translate(592.811,480.847)">
          <path
             d="m 0,0 c 11.826,1.774 23.652,3.548 35.478,5.322 0.777,0.116 1.313,0.849 1.198,1.636 -0.115,0.787 -0.837,1.33 -1.614,1.214 C 23.236,6.398 11.41,4.624 -0.416,2.85 -1.193,2.734 -1.729,2.001 -1.614,1.214 -1.499,0.427 -0.777,-0.116 0,0"
             style="fill:#346f31;fill-opacity:1;fill-rule:nonzero;stroke:none"
             id="path204" />
        </g>
        <g
           id="g206"
           transform="translate(574.803,554.3072)">
          <path
             d="M 0,0 C -0.412,-1.668 -2.577,-2.555 -4.836,-1.982 -7.094,-1.408 -8.59,0.409 -8.177,2.077 -7.765,3.745 -5.6,4.633 -3.342,4.059 -1.084,3.486 0.412,1.668 0,0"
             style="fill:#b84c31;fill-opacity:1;fill-rule:nonzero;stroke:none"
             id="path208" />
        </g>
        <g
           id="g210"
           transform="translate(573.2365,557.302)">
          <path
             d="m 0,0 c 0.7,2.235 2.106,4.18 4.022,5.643 1.762,1.345 4.095,2.21 6.271,2.28 0.768,0.024 1.433,0.609 1.447,1.414 0.013,0.751 -0.625,1.491 -1.396,1.467 C 4.454,10.615 -0.942,6.519 -2.727,0.815 -3.282,-0.956 -0.553,-1.766 0,0"
             style="fill:#346f31;fill-opacity:1;fill-rule:nonzero;stroke:none"
             id="path212" />
        </g>
        <g
           id="g214"
           transform="translate(506.3409,523.6956)">
          <path
             d="M 0,0 C 0.875,0.194 2.568,-1.19 5.955,-3.957 8.254,-5.837 8.709,-6.497 8.648,-7.192 8.553,-8.277 7.29,-8.395 5.186,-10.448 3.602,-11.993 3.78,-12.451 2.242,-13.979 0.915,-15.297 -1.012,-17.211 -2.13,-16.82 -4.858,-15.866 -3.782,-0.84 0,0"
             style="fill:#ffffff;fill-opacity:1;fill-rule:nonzero;stroke:none"
             id="path216" />
        </g>
        <g
           id="g218"
           transform="translate(511.5063,610.6766)">
          <path
             d="m 0,0 c -0.899,0.552 -2.356,0.902 -3.243,1.417 0.482,1.65 1.441,3.835 2.23,5.424 C -0.438,6.74 0.265,6.078 0.83,5.774 1.351,5.36 2.196,4.996 2.548,4.477 2.022,3.036 0.86,1.417 0.121,0.036 Z M 13.374,30.458 C 10.744,22.772 8.044,14.837 4.219,7.635 3.986,7.262 3.723,7.006 3.415,6.93 2.853,6.779 2.174,7.268 1.665,7.607 0.827,8.128 0.152,8.682 0.172,9.455 c 0.357,2.032 1.649,4.253 2.361,6.257 0.784,1.898 1.675,0.39 3.165,-10e-4 1.002,-0.227 1.588,0.711 0.96,1.503 -0.507,0.69 -1.347,0.963 -1.841,1.655 -1.119,1.766 1.245,4.548 1.569,6.47 0.101,0.508 0.103,1.298 -0.496,1.455 -2.28,0.191 -2.094,-4.683 -3.833,-5.02 -0.907,0.085 -1.656,0.891 -2.571,0.957 -1.127,0.184 -1.681,-0.927 -0.823,-1.671 0.92,-0.815 2.658,-1.12 2.445,-2.698 C 0.462,15.974 -0.779,13.397 -1.776,11.084 -2.521,9.464 -4.524,11.796 -5.51,10.492 -6.141,9.008 -3.265,8.579 -3.471,7.282 -3.463,6.609 -3.916,5.76 -4.218,4.969 -4.777,3.649 -5.176,2.076 -6.456,2.03 -7.163,1.966 -7.96,2.154 -8.64,2.018 -9.508,1.908 -10.072,1.052 -9.294,0.422 c 0.702,-0.595 2.495,-0.463 2.433,-1.409 0.221,-1.241 -4.269,-8.19 -0.805,-7.073 1.894,1.578 1.786,5.188 3.658,6.721 0.659,0.318 1.982,-0.132 2.328,-0.901 0.251,-0.504 0.226,-1.342 0.725,-1.632 0.912,-0.303 2.06,0.403 2.965,0.585 0.266,0.162 0.519,0.374 0.531,0.718 0.002,0.889 -0.473,1.611 0.085,2.543 0.383,0.69 0.823,1.611 1.281,2.085 0.771,0.938 2.206,-0.685 3.06,-0.103 1.31,1.061 -1.421,2.36 -1.117,3.57 3.328,7.656 6.995,15.306 9.209,23.443 0.465,1.241 -0.313,2.961 -1.549,1.678 z"
             style="fill:#e36c48;fill-opacity:1;fill-rule:nonzero;stroke:none"
             id="path220" />
        </g>
        <g
           id="g222"
           transform="translate(549.3405,674.4102)">
          <path
             d="m 0,0 c -1.475,1.123 -3.294,2.944 -4.266,4.53 0.679,1.919 2.873,6.972 3.864,8.765 0.296,0.003 0.689,-0.74 1.032,-1.122 C 1.573,10.789 2.947,9.453 3.659,8.003 2.848,5.301 1.365,2.612 0.13,0.031 Z m -9.703,10.513 c -0.959,0.881 0.521,2.493 0.747,3.542 0.929,1.974 1.461,4.202 2.551,6.063 1.258,-0.668 2.451,-2.4 3.515,-3.477 0.329,-0.442 0.864,-0.851 0.957,-1.343 C -2.749,12.353 -4.364,9.477 -5.543,6.612 -5.613,6.54 -5.753,6.396 -5.823,6.324 -6.084,6.279 -6.431,6.857 -6.742,7.17 -7.617,8.174 -8.738,9.45 -9.559,10.355 Z m -6.628,-7.899 c -0.968,1.003 -2.784,2.677 -3.493,3.838 -0.022,0.669 0.543,1.432 0.769,2.102 0.962,1.922 1.57,4.12 2.768,5.878 0.278,0.058 0.673,-0.478 1.014,-0.767 0.859,-0.958 2.14,-1.835 2.718,-2.944 -0.826,-2.735 -2.398,-5.464 -3.654,-8.085 z m -12.577,-5.115 c -0.193,0.222 -0.643,0.582 -0.708,0.943 0.891,3.298 2.428,6.666 3.523,9.976 0.332,0.582 0.644,0.263 1.164,-0.108 0.827,-0.687 2.06,-1.325 2.553,-2.253 -1.04,-3.333 -2.77,-6.778 -4.084,-10.039 -0.275,-0.385 -0.835,0.179 -1.28,0.48 -0.375,0.281 -0.786,0.636 -1.019,0.856 z m -8.971,-7.05 c -0.449,0.286 -1.644,0.525 -1.95,1.015 -0.114,0.316 0.231,0.842 0.381,1.279 1.217,2.62 2.037,5.51 3.479,7.985 0.31,0.142 0.808,-0.199 1.216,-0.356 0.974,-0.511 2.273,-1.072 2.727,-2.103 -0.196,-1.446 -1.066,-2.932 -1.509,-4.364 -0.564,-1.405 -1.075,-2.996 -1.692,-4.339 -0.265,-0.398 -0.841,0.068 -1.32,0.262 -0.404,0.192 -0.868,0.41 -1.148,0.538 z m 0.373,-7.117 c -0.664,-1.446 -1.149,-3.516 -2.07,-4.891 -0.298,-0.118 -0.779,0.284 -1.183,0.465 -1.058,0.688 -2.593,1.137 -3.424,2.005 -0.061,0.606 0.516,1.43 0.712,2.07 1,2.131 1.63,4.514 2.848,6.505 1.182,-0.104 2.519,-1.059 3.681,-1.51 0.322,-0.168 0.741,-0.296 0.824,-0.564 -0.062,-1.174 -0.996,-2.774 -1.31,-3.878 z m -5.868,-14.663 c -1.482,0.769 -3.425,1.479 -4.887,2.352 0.133,1.286 1.087,2.706 1.503,3.987 0.619,1.212 0.95,2.842 1.765,3.87 0.708,0.013 1.609,-0.786 2.333,-1.074 0.683,-0.457 1.871,-0.784 2.327,-1.411 0.112,-0.265 -0.114,-0.661 -0.243,-1.019 -0.893,-2.178 -1.701,-4.544 -2.663,-6.654 z m -4.051,-10.196 c -1.581,0.664 -3.633,1.177 -5.199,1.954 0.172,1.414 1.227,3.025 1.696,4.445 0.653,1.275 1.008,3.008 1.869,4.088 0.773,0.094 1.813,-0.631 2.59,-0.918 0.721,-0.43 1.885,-0.756 2.352,-1.388 0.112,-0.263 -0.116,-0.654 -0.247,-1.008 -0.978,-2.335 -1.873,-4.849 -2.92,-7.116 z m -4.105,-10.204 c -1.665,0.626 -3.78,0.942 -5.475,1.548 0.181,1.396 1.233,3.029 1.703,4.439 0.658,1.287 1.01,3.015 1.881,4.108 0.329,0.161 0.873,-0.121 1.321,-0.23 1.308,-0.502 2.816,-0.763 3.935,-1.625 0.124,-0.251 -0.113,-0.65 -0.246,-1.006 -0.999,-2.353 -1.909,-4.885 -2.978,-7.171 z m -1.381,-3.926 c -0.83,-1.989 -1.774,-4.172 -2.627,-6.185 -0.383,-0.734 -1.157,-0.297 -1.884,-0.251 -1.343,0.217 -2.852,0.225 -4.169,0.363 -0.043,0.069 -0.128,0.208 -0.171,0.277 1.1,2.888 2.445,5.85 3.618,8.732 0.077,0.092 0.232,0.276 0.309,0.368 1.668,0.138 3.571,-0.642 5.2,-1.117 0.801,-0.43 0.053,-1.144 -0.194,-1.989 z m -7.997,-18.581 c -1.717,0.341 -3.873,0.54 -5.529,1.212 0.225,1.495 1.32,3.196 1.833,4.698 0.703,1.404 1.116,3.172 2.01,4.401 0.777,0.305 1.89,0.029 2.752,0.044 1.047,-0.147 2.216,-0.018 3.161,-0.508 0.135,-0.327 -0.312,-0.979 -0.476,-1.472 -1.188,-2.694 -2.35,-5.687 -3.605,-8.298 z m 33.187,84.092 c -1.105,-3.07 -2.113,-6.464 -3.523,-9.415 -0.247,-0.084 -0.618,0.397 -0.996,0.602 -0.308,0.205 -0.644,0.399 -0.985,0.581 -0.548,0.377 -1.574,0.571 -1.932,1.066 0.173,1.443 1.213,3.041 1.681,4.482 0.688,1.37 1.063,3.199 1.962,4.373 0.974,0.036 2.933,-1.074 3.736,-1.535 z m 5.707,9.414 c 1.15,-0.78 3.222,-2.128 4.017,-3.259 0.035,-0.647 -0.552,-1.41 -0.774,-2.065 -0.968,-1.901 -1.566,-4.073 -2.727,-5.836 -0.576,0.087 -1.334,1.021 -1.936,1.356 -0.501,0.451 -1.398,0.775 -1.696,1.323 -0.107,0.276 0.105,0.665 0.225,1.022 0.93,2.418 1.796,5.063 2.767,7.419 z M 16.694,2.04 c -0.397,-0.556 -1.083,-1.714 -0.308,-2.231 1.139,-0.388 2.2,0.423 3.421,-0.632 0.692,-0.471 1.959,-0.832 2.08,0.353 0.126,1.03 -0.998,2.284 -1.443,3.278 C 20.09,3.613 19.763,4.442 19,4.95 17.453,5.722 16.663,7.703 15.921,9.123 14.057,11.352 12.352,5.705 11.229,4.705 10.273,3.653 9.243,5.132 8.545,5.875 5.446,8.594 7.393,10.702 8.491,13.799 c 0.459,1.836 2.201,3.949 1.36,5.776 -2.316,1.634 -3.511,-8.389 -5.265,-8.308 -0.808,0.189 -1.522,1.689 -2.14,2.357 -1.221,1.313 -1.693,2.886 -0.8,4.602 0.44,1.363 1.294,2.718 1.181,4.102 -0.855,2.129 -2.421,-0.943 -2.748,-2.193 -0.787,-2.446 -1.621,-1.547 -2.932,-0.042 -0.694,0.762 -1.631,1.555 -2.088,2.362 -0.361,0.591 -0.695,1.224 -1.192,1.327 -0.854,0.128 -1.43,-0.896 -1.733,-1.622 -1.073,-2.61 -1.96,-5.357 -3.218,-7.829 -0.794,-1.182 -1.876,0.349 -2.575,0.974 -2.647,2.03 0.415,5.047 0.947,7.423 0.129,0.569 0.147,1.439 -0.489,1.636 -1.573,-0.005 -1.986,-2.52 -2.689,-3.69 -0.788,-2.09 -1.66,-1.971 -3.195,-0.624 -1.355,0.92 -3.591,3.921 -4.806,1.45 -0.348,-1.228 -0.57,-2.693 -1.121,-3.933 -0.701,-1.517 -0.904,-3.499 -2.041,-4.649 -0.753,-0.525 -2.538,0.308 -2.996,1.014 -0.396,0.738 -0.012,1.554 0.277,2.285 0.498,0.875 0.561,3.094 -0.921,2.304 -0.891,-0.551 -1.195,-2.274 -1.856,-3.095 -0.612,-0.974 -2.258,-0.4 -2.945,-1.142 -0.637,-0.879 0.563,-1.378 1.069,-1.894 0.214,-0.227 0.306,-0.502 0.275,-0.857 -0.359,-1.671 -1.286,-3.283 -1.874,-4.906 -0.536,-1.392 -1.013,-2.591 -2.311,-2.435 -1.431,0.15 -3.76,1.298 -4.833,0.033 -0.59,-2.278 4.882,-1.095 4.592,-3.395 -0.393,-1.869 -1.434,-3.651 -2.085,-5.463 -0.463,-1.174 -0.909,-2.353 -1.861,-2.407 -1.138,-0.09 -2.855,0.845 -3.658,-0.268 -0.692,-1.666 3.344,-1.385 2.973,-3.103 -0.357,-1.784 -1.362,-3.486 -1.978,-5.207 -0.425,-1.115 -0.876,-1.961 -1.679,-1.831 -0.872,0.142 -1.714,0.704 -2.615,0.622 -0.888,-0.02 -1.554,-0.852 -0.821,-1.535 1.034,-0.833 3.214,-0.976 2.765,-2.732 -0.542,-1.859 -1.47,-3.674 -2.169,-5.485 -0.455,-1.18 -1.296,-1.662 -2.411,-1.607 -0.989,0.06 -2.702,0.096 -3.051,-0.988 -0.091,-0.337 0.1,-0.668 0.482,-0.86 0.774,-0.432 2.664,-0.092 2.812,-0.98 0.184,-0.55 -0.272,-1.493 -0.629,-2.37 -0.906,-1.722 -1.187,-4.051 -2.655,-5.297 -0.819,-0.619 -2.764,0.297 -3.435,-0.758 -0.547,-1.72 2.873,-1.227 2.313,-2.9 -0.301,-1.201 -0.957,-2.431 -1.396,-3.607 -0.772,-1.673 -1.19,-3.912 -2.877,-4.067 -0.782,-0.122 -1.619,-0.012 -2.397,-0.161 -2.136,-0.399 -1.722,-2.214 0.512,-2.09 0.819,0.001 1.455,-0.11 1.587,-0.592 -0.096,-2.049 -1.502,-3.996 -2.127,-5.965 -0.596,-1.662 -1.287,-3.136 -2.998,-3.167 -0.745,-0.087 -1.799,-0.165 -2.176,-0.856 -0.598,-1.471 2.286,-1.124 2.407,-1.893 -0.159,-2.256 -1.719,-4.547 -2.451,-6.706 -0.716,-1.825 -2.459,-1.037 -3.874,-1.18 -0.962,-0.141 -1.297,-1.05 -0.438,-1.616 0.828,-0.513 2.485,-0.662 2.311,-1.72 -0.05,-0.766 -0.619,-1.808 -0.968,-2.741 -0.686,-1.514 -1.088,-3.449 -2.543,-3.766 -0.664,-0.189 -1.418,-0.14 -2.068,-0.368 -0.752,-0.229 -1.315,-1.006 -0.601,-1.572 1.066,-0.629 2.607,-0.174 2.118,-1.698 -0.845,-2.246 -1.902,-4.816 -2.897,-7.031 -0.473,-0.97 -1.424,-1.296 -2.426,-1.619 -0.829,-0.214 -1.34,-1.23 -0.461,-1.716 0.84,-0.435 1.168,-0.93 0.809,-1.781 -0.682,-2.266 -2.341,-4.52 -2.41,-6.931 0.16,-0.87 1.095,-0.867 1.577,-0.217 1.078,1.531 1.628,3.661 2.444,5.41 0.87,2.362 1.473,3.351 3.685,2.398 1.226,-0.514 2.628,0.218 1.421,1.472 -0.725,0.706 -2.079,0.942 -2.328,1.661 -0.227,2.088 1.491,4.216 2.087,6.283 0.593,1.428 1.011,2.894 2.376,2.778 0.795,-0.087 1.637,-0.551 2.43,-0.501 1.137,0.087 1.131,1.167 0.263,1.782 -0.445,0.35 -1.097,0.545 -1.595,0.797 -1.898,0.972 0.166,3.414 0.534,4.878 0.981,3.114 2.248,2.811 4.995,2.145 1.457,-0.185 1.444,-1.271 1.93,-2.256 1.009,-1.145 2.101,1.168 2.903,1.667 0.836,0.84 0.267,1.813 0.579,2.916 0.968,2.467 2.061,5.293 3.261,7.701 0.849,1.259 2.191,0.541 3.536,-0.118 0.702,-0.4 2.054,-0.968 2.539,-0.231 0.501,1.366 -1.709,2.253 -2.733,2.731 -2.782,0.797 -1.031,3.238 -0.352,5.07 0.656,1.409 1.085,3.476 2.265,3.409 1.31,-0.14 2.345,-1.328 3.544,-1.737 1.623,-0.52 1.639,1.123 0.548,1.98 -0.903,0.911 -2.861,1.499 -3.29,2.61 -0.203,2.18 1.473,4.36 2.101,6.412 1.258,2.673 4.098,-0.71 5.918,-0.911 1.612,-0.332 1.777,1.136 0.517,1.923 -1.369,1.231 -4.961,1.524 -4.399,3.958 0.578,1.679 1.348,3.509 2.009,5.164 0.329,0.709 0.785,1.076 1.422,0.952 1.38,-0.217 3.687,-2.68 4.767,-1.057 0.109,0.384 -0.157,0.888 -0.625,1.281 -4.758,2.797 -4.132,2.527 -2.181,7.529 1.373,4.714 3.733,-0.43 5.362,1.756 0.185,1.033 -1.259,1.681 -2.011,2.154 -0.939,0.559 -1.231,1.364 -0.876,2.415 0.748,1.992 1.498,4.147 2.348,6.096 0.201,0.366 0.442,0.628 0.739,0.742 0.684,0.353 1.817,-0.542 2.799,-0.638 1.71,-0.142 1.221,1.547 0.102,2.08 -1.314,0.625 -2.423,1.493 -1.684,3.111 0.593,1.526 1.14,3.179 1.799,4.669 0.297,0.578 0.697,0.84 1.303,0.526 1.535,-0.811 2.378,-2.014 1.381,-3.879 -0.403,-1.14 -1.255,-2.563 -0.35,-3.333 1.637,-0.466 2.042,2.297 2.754,3.42 0.381,0.666 1.08,1.045 1.435,1.566 0.509,0.814 0.026,1.728 0.294,2.701 0.77,2.238 1.921,4.906 2.903,7.073 0.354,0.701 0.983,0.808 1.538,0.288 0.942,-0.916 2.389,-2.125 1.955,-3.615 -0.609,-1.45 -0.479,-3.558 1.237,-2.167 1.635,2.441 3.228,-1.227 5.143,-0.93 1.422,0.302 0.257,1.898 -0.571,2.379 -1.251,0.845 -2.709,2.016 -1.872,3.689 0.863,1.752 1.595,3.765 2.608,5.422 0.209,0.248 0.435,0.349 0.684,0.285 0.711,-0.252 1.611,-1.556 2.253,-2.232 1.11,-1.09 1.539,-2.422 0.678,-3.903 -0.664,-1.598 -1.748,-3.09 -2.073,-4.782 -0.037,-0.45 0.094,-1.006 0.543,-1.123 1.609,-0.04 2.175,2.667 2.929,3.85 0.972,2.358 1.739,1.629 3.164,0.053 0.979,-0.941 2.017,-1.779 1.779,-2.893 -0.148,-0.889 -1.274,-2.888 0.158,-3.169 1.16,-0.004 1.637,2.287 2.803,2.436 3.012,0.515 0.073,2.277 1.241,4.157 C 3.589,2.157 4.179,3.506 4.758,4.722 5.827,6.918 7.352,3.766 8.386,2.922 9.739,1.568 8.505,0.3 8.319,-1.146 c -0.054,-1.07 1.075,-1.089 1.638,-0.446 0.649,0.716 1.357,1.546 2.355,0.923 0.706,-0.384 1.589,-0.585 1.862,-0.043 0.534,1.396 -1.911,2.298 -1.198,3.789 0.553,1.16 1.551,3.812 2.952,1.654 0.63,-0.877 1.241,-1.596 0.854,-2.529 z"
             style="fill:#e36c48;fill-opacity:1;fill-rule:nonzero;stroke:none"
             id="path224" />
        </g>
        <g
           id="g226"
           transform="translate(577.7869,627.194)">
          <path
             d="m 0,0 c -0.297,0.475 -0.635,1.178 -0.674,2.052 -0.04,0.893 0.206,1.24 0.02,1.755 -0.323,0.896 -1.611,0.422 -2.186,1.015 -1.02,1.021 -1.337,3.466 -1.333,4.824 0.173,1.082 1.089,2.541 2.216,2.793 0.717,0.075 1.662,0.204 1.644,1.141 -0.2,1.108 0.318,2.31 -0.01,3.323 -0.402,0.622 -1.362,0.648 -1.824,1.255 -1.252,2.041 -2.793,5.137 -1.903,7.517 0.809,1.8 2.435,3.464 2.915,5.449 0.091,0.916 -0.8,1.54 -1.314,2.489 -0.664,1.95 -2.62,4.088 -1.822,6.186 0.391,0.931 1.427,2.027 0.911,3.043 -0.308,0.512 -1.025,0.416 -1.455,0.044 -0.429,-0.281 -0.956,-1.215 -1.437,-1.032 -0.232,0.065 -0.467,0.345 -0.752,0.65 -0.922,1.176 -2.337,0.571 -1.863,-0.815 0.302,-0.987 1.17,-1.992 0.961,-2.994 -0.542,-2.197 -2.605,-4.024 -3.234,-6.218 -0.082,-0.427 0.003,-0.906 0.376,-1.118 1.473,-0.56 2.406,2.011 3.139,3.019 0.555,0.958 1.107,1.804 1.579,1.384 0.568,-0.523 1.012,-1.929 1.402,-2.761 0.516,-1.134 0.837,-2.233 0.283,-3.356 -1.372,-2.505 -3.053,-4.96 -4.448,-7.485 -0.154,-0.371 -0.342,-0.837 -0.277,-1.224 0.047,-0.442 0.356,-0.748 0.76,-0.752 0.784,-0.065 1.514,1.18 1.904,1.077 0.589,-0.251 0.703,-1.125 1.126,-1.926 0.61,-1.603 2.215,-3.375 1.259,-5.028 -1.458,-2.367 -3.513,-4.54 -4.84,-7.013 -0.432,-0.919 0.393,-1.845 1.29,-1.283 0.988,0.652 1.273,0.952 1.725,-0.313 0.374,-1.316 1.514,-2.275 1.52,-3.55 -0.933,-2.89 -4.059,-5.008 -5.224,-7.855 -0.261,-1.015 0.549,-1.612 0.968,-2.494 0.509,-1.66 1.858,-4.101 0.772,-5.667 -0.324,-0.461 -0.829,-1.082 -1.406,-1.087 -0.915,-0.154 -2.798,3.387 -3.88,1.443 -0.393,-1.214 1.964,-2.567 1.861,-3.767 -0.029,-0.291 -0.132,-0.622 -0.259,-0.886 -0.285,-0.563 -0.733,-1.37 -0.217,-1.894 0.349,-0.35 0.94,-0.225 1.36,-0.016 0.706,0.381 1.115,0.335 1.69,-0.321 0.498,-0.572 1.271,-0.888 1.692,-0.443 0.447,0.408 0.293,1.274 -0.086,1.981 -0.579,0.989 -0.502,2.217 0.491,2.727 0.996,0.197 1.094,-1.71 1.545,-2.402 0.305,-0.903 1.556,-1.791 2.075,-0.641 0.49,2.072 -2.003,4.47 -0.886,6.304 0.377,0.68 1.055,1.257 1.344,1.975 0.525,1.108 -0.617,1.812 -1.495,1.153 -1.086,-0.845 -1.469,-0.861 -1.893,0.571 -1.528,3.795 -0.501,4.443 1.737,7.32 0.59,0.717 1.15,1.82 2.097,1.227 0.444,-0.278 0.567,-0.462 0.79,-0.512 C -1.028,-1.189 -0.642,-1.014 0,0"
             style="fill:#e36c48;fill-opacity:1;fill-rule:nonzero;stroke:none"
             id="path228" />
        </g>
        <g
           id="g230"
           transform="translate(520.2267,612.1315)">
          <path
             d="m 0,0 c 0.844,1.279 0.871,4.124 1.087,5.679 l 1.809,-2 c 5.667,-5.844 12.202,-8.712 20.081,-9.612 0.803,-0.091 1.634,-0.003 2.431,-0.095 l 0.198,-0.237 c -0.524,-2.348 -0.879,-4.734 -0.757,-7.149 -8.689,0.017 -17.078,4.013 -23.252,10.159 -0.408,0.407 -2.423,2.594 -2.26,2.852 C -0.642,-0.37 -0.229,-0.347 0,0 m 14.734,19.244 c 0.697,3.078 2.401,2.742 4.951,2.089 6.223,-1.593 12.69,-2.482 18.688,0.715 0.429,0.229 0.632,0.953 1.605,1.004 2.133,0.114 2.017,-5.461 1.741,-6.92 -0.685,-3.618 -3.658,-7.336 -7.225,-8.099 0.671,4.019 -0.959,2.171 -2.776,1.689 -0.944,-0.251 -3.175,-0.465 -4.132,-0.358 -2.24,0.25 -4.212,1.998 -3.838,-2.27 -5.442,0.611 -10.321,6.375 -9.014,12.15 M 34.941,-9.883 c -2.502,-2.269 -5.166,-2.975 -6.354,-3.214 -0.263,2.286 0.254,4.471 0.367,6.736 2.029,-0.098 5.058,0.087 8.154,1.672 0.645,0.331 1.228,0.688 1.753,1.054 -0.348,-1.173 -1.326,-3.897 -3.92,-6.248 m 44.81,-202.214 -12.604,6.555 c 2.201,1.654 9.089,4.908 9.195,8.04 -0.651,6.733 -1.146,13.503 -1.773,20.255 -1.063,11.45 -1.816,23.519 -2.786,35.201 -0.167,2.01 -0.384,4.049 -0.601,6.094 -0.744,-0.17 -1.509,-0.286 -2.293,-0.349 -0.502,-0.054 -1.007,-0.097 -1.51,-0.141 0.125,-2.292 0.243,-4.52 0.444,-6.898 0.475,-5.591 1.137,-19.73 3.965,-47.982 0.241,-2.398 0.443,-4.347 0.568,-5.542 -0.87,-0.484 -2.184,-1.198 -3.804,-2.008 -8.167,-4.085 -23.634,-10.392 -62.393,-10.303 -30.508,0.07 -36.027,4.012 -37.749,8.034 -0.315,0.735 -0.762,2.024 -0.629,4.618 0.598,11.631 1.323,23.258 2.328,34.86 0.127,1.466 0.216,2.601 0.236,2.856 0.514,6.575 0.74,11.966 0.848,15.73 l 1.161,25.017 11.773,-6.457 c 2.126,-0.775 3.047,0.51 3.397,0.454 0.241,-0.038 3.058,-2.921 3.618,-3.393 2.596,-2.19 7.438,-5.505 10.855,-5.251 0.934,0.07 2.14,0.597 3.001,0.552 1.007,-0.052 2.563,-0.919 3.856,-1.055 2.281,-0.241 4.255,0.162 5.268,2.447 0.561,-0.014 1.374,0.016 2.32,0.237 0.936,0.219 2.205,0.516 3.245,1.529 0.107,0.104 1.646,1.64 1.562,3.415 -0.118,2.498 -3.335,3.099 -7.904,7.315 -3.011,2.778 -4.937,5.583 -4.555,6.031 0.261,0.305 1.368,-0.905 3.716,-0.904 0,0 1.987,-0.123 3.296,0.726 0.136,0.089 0.266,0.187 0.266,0.187 0.203,0.154 0.328,0.276 0.449,0.389 0.482,0.451 0.61,0.492 1.026,0.913 0.064,0.064 0.127,0.131 0.187,0.198 0.014,0.019 0.037,0.051 0.057,0.081 0.218,0.332 0.402,0.558 0.416,0.577 0.176,0.239 0.577,1.263 0.411,2.135 -0.17,0.889 -0.852,1.214 -2.018,2.253 -1.077,0.96 -1.086,1.209 -2.343,2.539 -3.188,3.371 -4.844,5.123 -7.356,6.088 -2.45,0.943 -3.317,0.215 -6.607,1.634 -0.968,0.418 -1.788,0.868 -2.813,1.503 -3.815,2.369 -6.483,4.853 -8.867,6.99 -1.733,1.554 -4.284,3.793 -7.533,6.467 0.137,2.701 0.897,5.338 1.279,7.996 1.344,9.336 2.837,20.993 0.353,30.205 -0.47,1.744 -2.605,7.779 -4.424,8.085 -0.313,0.053 -1.165,-0.064 -1.233,-0.391 -0.458,-2.219 1.652,-6.371 2.178,-8.719 2.038,-9.108 0.685,-19.994 -0.766,-29.102 -0.293,-1.836 -0.767,-3.643 -1.04,-5.482 -0.693,0.593 -1.457,0.998 -2.279,1.368 -3.883,1.749 -8.226,2.222 -12.252,0.629 -1.473,-0.584 -3.485,-1.55 -3.427,-3.444 0.026,-0.862 1.251,-1.288 1.306,-1.309 1.709,-0.647 3.441,0.896 4.696,1.486 3.008,1.416 7.626,-0.316 21.921,-11.568 1.902,-1.497 4.059,-2.674 5.808,-4.361 -6.227,-3.663 -9.859,-11.943 -9.642,-19.248 0.022,-0.744 0.121,-2.244 0.259,-2.9 0.204,-0.974 0.924,-1.964 0.863,-3.015 -4.087,2.248 -8.146,4.531 -12.17,6.897 -10.158,5.973 -20.754,12.333 -22.257,25.882 -1.432,12.916 3.321,38.856 7.781,51.218 6.591,18.273 18.758,21.633 33.901,29.806 1.753,0.946 3.729,2.044 5.238,3.326 l 0.336,0.014 c 0.248,-0.642 0.869,-1.407 1.325,-1.908 4.901,-5.39 12.817,-10.222 19.942,-11.366 1.866,-0.3 4.329,-0.615 6.133,-0.189 0.575,-2.987 1.101,-6.086 1.561,-9.293 1.059,-7.383 1.633,-14.37 1.868,-20.876 0.038,-1.035 0.875,-1.844 1.897,-1.832 1.017,0.013 1.848,0.839 1.86,1.87 0.046,4.081 -0.105,8.588 -0.578,13.442 -0.617,6.324 -1.66,11.979 -2.828,16.856 0.098,0.387 1.657,0.479 2.203,0.644 4.986,1.509 8.968,5.029 10.412,10.265 0.085,0.308 -0.185,0.401 0.337,0.357 7.35,-3.161 15.022,-6.042 21.276,-11.172 1.667,-1.367 3.137,-2.816 4.444,-4.36 1.243,-1.468 3.353,-4.198 7.011,-12.666 1.722,-3.989 3.505,-8.592 5.253,-14.064 1.416,-4.429 2.419,-8.207 3.099,-10.974 0.762,0.574 1.525,1.147 2.287,1.72 -1.218,5.84 -2.509,10.662 -3.541,14.197 -1.934,6.63 -3.062,10.428 -5.547,15.222 -1.322,2.551 -2.932,5.685 -5.923,9.202 -4.152,4.879 -9.216,8.413 -15.341,11.709 -0.509,0.274 -2.527,1.048 -3.302,1.384 -0.776,0.337 -1.744,0.56 -2.591,0.915 -0.714,0.299 -1.25,0.515 -1.651,0.692 -1.469,0.648 -3.123,1.38 -4.954,2.194 1.014,0.884 2.427,2.228 3.903,4.046 10e-4,0 3.348,4.124 5.426,9.545 4.895,12.767 0.919,30.479 -0.808,40.406 -0.263,1.512 -0.938,3.907 -1.304,5.391 -0.156,0.239 -0.298,-0.042 -1.156,0.298 -0.698,0.277 -1.343,0.268 -1.629,0.224 0.262,-2.3 0.817,-4.609 1.095,-6.909 0.838,-6.932 2.698,-20.23 0.861,-26.663 -0.142,-0.496 -1.507,-4.218 -1.669,-4.384 -0.588,-0.605 -0.484,1.243 -0.549,1.5 -0.806,3.231 -3.171,6.904 -6.829,5.357 1.262,6.452 -4.265,11.03 -6.76,16.278 -0.645,1.357 -1.186,5.071 -2.94,4.125 -1.645,-0.888 0.406,-5.397 0.972,-6.731 1.282,-3.026 3.9,-6.483 4.741,-9.448 1.678,-5.916 -4.636,-5.853 -8.472,-4.413 -0.797,0.3 -3.438,2.036 -3.801,1.993 C 22.38,29.394 21.44,27.845 21.316,27.811 20.646,27.625 19.379,27.867 18.561,27.758 13.065,27.019 9.232,23.409 9.513,17.44 9.376,17.266 7.189,18.941 7.031,19.085 -0.327,25.776 1.115,31.373 -0.8,40.002 c -0.119,0.535 -0.429,1.384 -1.137,1.12 -1.768,-5.348 -3.537,-10.696 -5.306,-16.044 0.896,-4.34 1.81,-7.114 2.511,-8.887 0.044,-0.11 0.508,-1.325 1.437,-3.755 C -2.148,9.435 -2.077,9.243 -2.016,8.758 -1.893,7.794 -2.158,6.404 -2.689,3.624 -2.978,2.109 -3.103,1.748 -3.396,1.354 -3.678,0.976 -4.472,0.479 -6.049,-0.499 c -1.363,-0.846 -1.429,-0.886 -1.603,-0.984 -0.342,-0.191 -0.834,-0.456 -2.564,-1.272 -1.074,-0.507 -1.623,-0.757 -1.623,-0.757 -6.197,-2.82 -9.296,-4.23 -10.482,-4.882 -3.847,-2.114 -6.607,-4.348 -9.416,-6.621 -0.287,-0.232 -0.641,-0.513 -1.101,-0.898 0,0 -1.424,-1.195 -2.581,-2.314 -2.879,-2.787 -5.257,-6.383 -5.257,-6.384 -2.99,-4.521 -4.32,-8.547 -4.777,-10.048 -0.26,-0.853 -0.276,-1.043 -0.703,-2.63 -0.564,-2.098 -1.533,-5.527 -3.195,-10.678 -0.103,-0.725 -0.249,-1.679 -0.45,-2.793 -0.296,-1.644 -0.567,-2.84 -0.608,-3.025 -6.086,-27.557 -2.211,-39.704 -2.211,-39.704 3.125,-10.489 12.639,-17.262 21.434,-22.361 -0.174,-0.516 -0.415,-0.857 -0.461,-1.436 -0.506,-6.346 -0.445,-13.168 -0.788,-19.583 -1.005,-18.787 -2.38,-37.563 -3.36,-56.34 -0.11,-2.101 -0.546,-4.421 -0.571,-6.535 -0.009,-0.788 -0.028,-1.302 0.111,-1.828 0,0 0.173,-0.599 0.545,-1.16 1.902,-2.871 5.591,-4.735 5.591,-4.735 3.83,-1.935 7.636,-2.916 10.335,-3.432 0.074,-0.09 -0.371,-1.98 -0.394,-2.317 -0.186,-2.735 -0.27,-5.137 1.328,-7.392 2.368,-3.344 9.69,-9.119 13.345,-10.809 5.705,-2.637 16.817,-4.102 21.179,1.554 4.531,5.875 -3.181,10.955 -6.595,14.715 8.827,-0.302 17.722,0.268 26.513,1.265 0.426,-1.373 0.231,-2.208 1.481,-3.123 1.385,-1.012 6.178,-2.309 8.076,-2.912 8.641,-2.744 24.575,-7.96 33.053,-4.535 2.063,0.833 5.338,3.006 5.355,5.596 0.022,3.24 -1.466,4.918 -3.806,6.76"
             style="fill:#346f31;fill-opacity:1;fill-rule:nonzero;stroke:none"
             id="path232" />
        </g>
        <g
           id="g234"
           transform="translate(537.8296,655.7715)">
          <path
             d="M 0,0 C -3.038,-0.729 -2.177,-6.206 -0.174,-6.214 1.234,-6.221 2.445,-3.95 2.424,-2.688 2.405,-1.519 1.286,0.309 0,0 m 23.697,-3.291 c 1.206,1.245 0.946,5.028 -0.972,5.606 -3.866,1.166 -2.808,-5.138 -1.589,-5.709 0.53,-0.247 2.119,-0.355 2.561,0.103 M -0.876,9.854 C -3.798,9.618 -7.394,7.632 -8.632,4.768 -9.27,3.291 -8.747,1.037 -6.92,1.636 c 0.607,0.199 2.565,2.418 3.689,2.98 0.74,0.371 2.572,0.97 3.382,1.093 C 1.577,5.925 3.195,5.194 4.36,6.312 6.379,8.251 2.229,9.807 0.667,9.932 0.077,9.979 -0.327,9.898 -0.876,9.854 M 16.12,7.423 c 0.756,-0.743 3.166,0.389 4.265,0.506 0.799,0.085 2.002,0.117 2.799,0.055 1.476,-0.116 4.318,-1.785 5.158,-0.615 0.77,1.073 0.166,1.806 -0.512,2.645 -2.515,3.111 -8.45,3.847 -11.137,0.633 C 16.135,9.979 15.402,8.127 16.12,7.423 m -8.109,5.095 c 4.127,-0.466 4.492,2.409 7.184,3.368 3.577,1.274 8.214,1.331 11.923,0.264 0.569,-0.164 1.792,-1.015 1.898,-1.043 0.263,-2.3 0.788,-4.564 1.066,-6.865 0.838,-6.931 2.698,-20.229 0.861,-26.662 -0.142,-0.496 -1.507,-4.218 -1.669,-4.385 -0.039,-0.04 -0.132,-0.131 -0.236,-0.117 -0.36,0.049 -0.457,1.303 -0.506,1.718 -0.264,2.208 -2.127,5.126 -4.365,5.572 -0.422,0.085 -1.2,0.149 -2.271,-0.315 1.263,6.452 -4.264,11.03 -6.76,16.278 -0.645,1.357 -1.186,5.071 -2.939,4.125 -1.646,-0.888 0.405,-5.397 0.971,-6.731 1.282,-3.026 3.9,-6.484 4.741,-9.448 1.678,-5.916 -4.635,-5.853 -8.472,-4.413 -0.797,0.3 -3.438,2.036 -3.801,1.993 -0.859,-0.103 -1.799,-1.652 -1.923,-1.686 -0.67,-0.186 -1.937,0.056 -2.755,-0.053 -5.496,-0.739 -9.328,-4.349 -9.048,-10.318 -0.137,-0.174 -2.324,1.501 -2.482,1.645 -7.357,6.691 -5.916,12.288 -7.831,20.917 -0.119,0.535 -0.429,1.384 -1.137,1.12 2.521,5.918 4.054,11.136 9.853,14.727 5.495,3.403 9.935,1.878 15.584,0.75 0.136,-0.413 0.676,-0.186 0.935,0.019 0.074,0.018 0.159,-0.012 0.234,0.004 -0.133,-0.77 0.381,-0.401 0.945,-0.464"
             style="fill:#f9e1b9;fill-opacity:1;fill-rule:nonzero;stroke:none"
             id="path236" />
        </g>
        <g
           id="g238"
           transform="translate(560.2051,635.1837)">
          <path
             d="m 0,0 c -0.973,-0.052 -1.176,-0.775 -1.605,-1.004 -5.998,-3.197 -12.465,-2.308 -18.689,-0.715 -2.549,0.653 -4.253,0.988 -4.95,-2.089 -1.308,-5.776 3.571,-11.54 9.014,-12.15 -0.374,4.268 1.598,2.52 3.838,2.27 0.956,-0.108 3.187,0.107 4.132,0.358 1.817,0.482 3.447,2.33 2.776,-1.689 3.567,0.763 6.54,4.481 7.224,8.098 C 2.017,-5.462 2.133,0.113 0,0"
             style="fill:#f9e1b9;fill-opacity:1;fill-rule:nonzero;stroke:none"
             id="path240" />
        </g>
        <g
           id="g242"
           transform="translate(536.9536,665.6252)">
          <path
             d="M 0,0 C 0.549,0.044 0.953,0.125 1.543,0.078 3.105,-0.047 7.255,-1.603 5.236,-3.541 4.071,-4.66 2.453,-3.929 1.027,-4.145 0.217,-4.268 -1.615,-4.867 -2.355,-5.237 -3.479,-5.8 -5.437,-8.019 -6.044,-8.218 -7.871,-8.817 -8.394,-6.563 -7.756,-5.085 -6.518,-2.222 -2.922,-0.236 0,0"
             style="fill:#346f31;fill-opacity:1;fill-rule:nonzero;stroke:none"
             id="path244" />
        </g>
        <g
           id="g246"
           transform="translate(553.9499,663.194)">
          <path
             d="M 0,0 C -0.718,0.705 0.014,2.557 0.573,3.224 3.26,6.438 9.195,5.703 11.709,2.591 12.387,1.752 12.991,1.02 12.222,-0.053 11.382,-1.224 8.54,0.445 7.063,0.561 6.266,0.623 5.064,0.591 4.265,0.506 3.165,0.389 0.756,-0.742 0,0"
             style="fill:#346f31;fill-opacity:1;fill-rule:nonzero;stroke:none"
             id="path248" />
        </g>
        <g
           id="g250"
           transform="translate(561.527,652.4802)">
          <path
             d="m 0,0 c -0.443,-0.458 -2.032,-0.35 -2.562,-0.102 -1.219,0.57 -2.277,6.874 1.59,5.709 C 0.945,5.029 1.206,1.245 0,0"
             style="fill:#346f31;fill-opacity:1;fill-rule:nonzero;stroke:none"
             id="path252" />
        </g>
        <g
           id="g254"
           transform="translate(537.8296,655.7715)">
          <path
             d="M 0,0 C 1.286,0.309 2.405,-1.519 2.424,-2.688 2.445,-3.95 1.234,-6.221 -0.174,-6.214 -2.177,-6.206 -3.038,-0.729 0,0"
             style="fill:#346f31;fill-opacity:1;fill-rule:nonzero;stroke:none"
             id="path256" />
        </g>
        <g
           id="g258"
           transform="translate(542.0545,629.3495)">
          <path
             d="m 0,0 c 3.667,-2.225 8.032,-4.306 12.082,-1.468 1.054,0.761 5.132,4.548 4.03,0.84 -2.694,-5.478 -10.516,-5.796 -15.307,-2.915 -0.987,0.614 -2.036,1.447 -2.606,2.48 -0.725,1.337 -0.014,2.061 1.546,1.197 z"
             style="fill:#346f31;fill-opacity:1;fill-rule:nonzero;stroke:none"
             id="path260" />
        </g>
        <g
           id="g262"
           transform="translate(503.9843,667.2201)">
          <path
             d="m 0,0 c -0.471,-1.376 -1.214,-3.481 -2.222,-6.082 -0.301,-0.777 -0.237,-0.593 -0.669,-1.704 -10e-4,0 -1.3,-3.417 -2.667,-7.298 -0.369,-1.047 -0.411,-1.475 -0.655,-2.428 -0.473,-1.837 -1.502,-4.079 -2.223,-6.082 -0.401,-1.115 -0.499,-1.883 -0.88,-2.915 -0.727,-1.971 -1.295,-3.793 -2.222,-6.082 -1.683,-4.153 -2.019,-4.478 -4.706,-10.719 -1.145,-2.658 -2.027,-4.789 -2.461,-5.845 -0.568,-1.381 -0.495,-1.226 -0.894,-2.192 -1.006,-2.436 -2.204,-5.323 -3.813,-8.528 -0.95,-1.894 -0.79,-1.405 -1.72,-3.259 -1.464,-2.918 -2.411,-5.216 -3.156,-7.033 -0.574,-1.401 -1.386,-3.455 -2.296,-6.031 -1.526,-4.321 -2.42,-6.887 -3.074,-10.446 -0.209,-1.136 -0.487,-2.671 -0.614,-4.601 -0.173,-2.633 -0.11,-6.683 1.315,-11.643 -0.403,-1.995 -0.806,-3.99 -1.209,-5.985 -0.952,0.754 -1.618,2.671 -2.013,3.876 -6.804,20.718 8.524,43.704 16.386,62.013 5.846,13.614 10.31,27.204 15.398,41.075 0.159,0.434 0.231,0.878 0.195,1.343 C -2.896,-0.975 -1.403,-0.098 0,0"
             style="fill:#b84c31;fill-opacity:1;fill-rule:nonzero;stroke:none"
             id="path264" />
        </g>
        <g
           id="g266"
           transform="translate(632.5707,512.9559)">
          <path
             d="M 0,0 C -0.38,2.133 0.505,2.792 0.161,4.531 -0.053,5.613 -0.743,7.119 -3.012,8.681 -3.822,8.152 -6.669,6.15 -7.57,2.405 c -0.385,-1.6 -0.291,-3.001 -0.135,-3.955 -0.266,-0.129 -1.777,-0.893 -2.312,-2.662 -0.467,-1.543 -0.013,-3.262 1.164,-4.466 -0.346,-0.377 -0.938,-1.125 -1.215,-2.23 -0.419,-1.674 -0.005,-3.729 1.199,-4.73 2.297,-1.911 7.247,0.204 8.587,3.1 0.499,1.077 0.05,1.297 0.738,4.066 0.678,2.731 1.224,2.957 1.137,4.319 C 1.471,-2.267 0.392,-2.201 0,0"
             style="fill:#346f31;fill-opacity:1;fill-rule:nonzero;stroke:none"
             id="path268" />
        </g>
        <g
           id="g270"
           transform="translate(625.9567,505.8177)">
          <path
             d="m 0,0 c -0.475,0.319 -0.91,0.975 -0.847,1.624 0.099,1.01 1.383,1.527 3.301,2.3 C 3.404,4.307 4.519,4.63 5.221,4.19 5.283,4.151 5.432,4.069 5.544,3.895 5.649,3.73 5.668,2.451 5.606,2.182 5.254,0.66 0.998,-0.671 0,0"
             style="fill:#f9e1b9;fill-opacity:1;fill-rule:nonzero;stroke:none"
             id="path272" />
        </g>
        <g
           id="g274"
           transform="translate(629.943,502.3064)">
          <path
             d="m 0,0 c 0.001,-0.318 -0.036,-0.801 -0.253,-1.325 -0.633,-1.537 -2.314,-2.259 -3.62,-2.264 -0.439,-0.002 -0.977,-0.004 -1.254,0.357 -0.45,0.585 0.06,1.776 0.585,2.393 C -3.15,0.797 -0.239,0.064 0,0"
             style="fill:#f9e1b9;fill-opacity:1;fill-rule:nonzero;stroke:none"
             id="path276" />
        </g>
        <g
           id="g278"
           transform="translate(629.5535,517.3406)">
          <path
             d="M 0,0 C 0.409,-0.198 1.027,-2.23 0.779,-2.861 0.458,-3.677 -2.298,-4.811 -2.482,-2.746 -2.564,-1.823 -0.706,0.342 0,0"
             style="fill:#f9e1b9;fill-opacity:1;fill-rule:nonzero;stroke:none"
             id="path280" />
        </g>
        <g
           id="g282"
           transform="translate(562.0153,692.6758)">
          <path
             d="m 0,0 c -0.846,0.019 -1.757,0.005 -2.725,-0.057 -0.695,-0.046 -1.358,-0.112 -1.983,-0.193 -0.317,0.247 -0.777,0.591 -1.351,0.969 -0.748,0.494 -3.339,2.133 -7.853,3.196 -3.366,0.792 -6.018,0.845 -7.856,0.87 -10e-4,0 -5.861,0.082 -12.715,-1.76 -0.724,-0.194 -1.379,-0.424 -1.379,-0.424 -0.745,-0.262 -1.314,-0.517 -2.759,-1.233 -3.026,-1.499 -4.017,-2.11 -4.44,-2.376 -0.238,-0.15 -0.563,-0.359 -0.942,-0.615 -2.01,-1.359 -3.39,-2.603 -3.67,-2.858 -1.767,-1.607 -3.134,-3.288 -4.121,-4.67 -1.484,-0.433 -3.19,-0.824 -4.654,-1.3 1.633,2.958 5.128,8.362 11.548,12.781 1.739,1.196 6.86,4.5 14.358,5.903 3.008,0.563 14.59,2.536 25.335,-4.151 C -2.819,2.596 -1.076,1.048 0,0"
             style="fill:#b84c31;fill-opacity:1;fill-rule:nonzero;stroke:none"
             id="path284" />
        </g>
        <g
           id="g286"
           transform="translate(576.921,617.8938)">
          <path
             d="m 0,0 c -0.58,-4.035 -1.359,-8.05 -2.039,-12.065 -0.509,0.275 -2.526,1.046 -3.302,1.384 3.699,21.188 6.021,38.048 1.84,59.755 -1.131,3.968 -5.792,3.315 -9.257,4.662 -4.076,1.194 -6.869,0.749 -8.714,0.063 -1.25,-0.465 -2.022,-1.026 -5.519,-2.552 -2.267,-0.989 -3.4,-1.484 -3.957,-1.584 -3.456,-0.621 -5.158,1.629 -8.65,2.269 -3.829,0.702 -7.126,-1.024 -8.953,-1.98 -5.049,-2.643 -6.959,-7.743 -10.263,-17.1 -4.813,-13.628 -6.702,-19.653 -8.871,-25.446 -1.884,-5.032 -4.897,-12.252 -9.587,-20.696 -1.526,-0.854 -3.052,-1.707 -4.578,-2.561 7.79,16.142 12.729,29.781 15.884,39.664 3.56,11.153 7.304,26.058 16.035,29.8 2.698,1.156 7.41,3.176 12.038,1.524 1.965,-0.701 2.804,-1.668 5.046,-1.853 2.94,-0.242 4.085,1.208 8.09,2.638 1.35,0.482 5.73,2 10.759,1.562 1.871,-0.162 4.801,-0.68 8.213,-2.478 -1.303,2.372 -3.303,5.19 -4.982,7.094 0.768,0.33 1.535,0.66 2.302,0.99 C 6.81,50.891 1.56,17.777 0,0"
             style="fill:#b84c31;fill-opacity:1;fill-rule:nonzero;stroke:none"
             id="path288" />
        </g>
        <g
           id="g290"
           transform="translate(561.2779,692.7458)">
          <path
             d="m 0,0 c 3.164,-0.16 6.581,-0.328 7.576,-2.426 0.403,-0.849 0.404,-1.976 -0.21,-3.464 1.839,-0.064 3.246,-0.767 3.937,-1.952 0.673,-1.155 0.797,-2.762 0.084,-3.826 -0.917,-1.368 -2.797,-1.206 -6.201,-1.369 -3.02,-0.145 -7.101,-0.779 -15.263,-2.047 -0.321,-0.05 -0.631,-0.099 -3.891,-0.649 -10.885,-1.837 -21.615,-3.684 -28.438,-5.393 -1.996,-0.5 -3.957,-1.044 -3.957,-1.044 -1.485,-0.412 -3.49,-0.972 -6.047,-1.81 -1.89,-0.62 -3.393,-1.141 -3.393,-1.141 -2.409,-0.835 -4.135,-1.489 -5.691,-0.971 -0.675,0.225 -1.004,0.566 -1.143,0.732 -0.377,0.45 -0.565,1.052 -0.561,1.771 0.014,2.698 1.507,3.149 3.202,4.655 -0.198,0.16 -0.451,0.397 -0.682,0.731 -0.986,1.427 -1.083,3.744 -0.021,4.938 0.704,0.791 3.937,2.403 4.988,2.744 1.465,0.476 3.171,0.867 4.654,1.3 1.785,0.521 3.565,0.856 5.356,1.313 0.852,0.218 1.7,0.568 2.558,0.775 1.021,0.247 2.075,0.323 3.031,0.543 1.608,0.371 3.324,0.974 4.888,1.305 1.75,0.369 3.605,0.735 5.36,1.072 0.988,0.189 1.944,0.146 2.802,0.297 1.735,0.305 3.878,0.992 5.593,1.076 2.168,0.107 1.784,0.127 3.733,0.557 2.06,0.455 4.642,0.787 6.763,1.1 0.439,0.065 1.122,0.207 1.866,0.278 0.75,0.073 1.283,0.245 1.399,0.27 C -7.264,-0.542 -3.629,0.183 0,0"
             style="fill:#346f31;fill-opacity:1;fill-rule:nonzero;stroke:none"
             id="path292" />
        </g>
        <g
           id="g294"
           transform="translate(526.0488,498.7027)">
          <path
             d="m 0,0 c 2.561,-3.801 3.988,-5.596 6.515,-7.665 3.305,-2.706 6.834,-4.275 6.494,-5.345 -0.113,-0.354 -0.682,-0.76 -1.098,-0.96 0,0 -0.562,-0.268 -1.244,-0.275 -3.554,-0.036 -10.128,5.289 -12.673,7.906 -0.685,0.704 -2.836,3.895 -3.56,3.956 -0.341,0.029 -0.621,-0.04 -0.843,-0.18 -0.898,-0.564 -0.339,-2.619 -0.247,-2.977 0.17,-0.657 0.74,-2.406 3.403,-4.51 1.995,-1.577 7.076,-4.86 7.837,-5.834 0.07,-0.091 0.272,-0.349 0.191,-0.542 -0.098,-0.233 -0.554,-0.243 -0.71,-0.246 -4.161,-0.085 -11.517,6.708 -11.517,6.708 -1.148,1.06 -2.687,2.551 -3.479,2.118 -0.427,-0.233 -0.482,-0.941 -0.488,-1.056 -0.034,-0.685 0.293,-1.386 1.423,-2.546 1.896,-1.947 3.53,-2.596 3.359,-3.311 -0.058,-0.247 -0.302,-0.379 -0.358,-0.409 -1.073,-0.581 -3.271,1.545 -4.792,3.039 -2.202,2.162 -3.556,3.492 -4.811,5.873 -1.325,2.513 -2.083,5.781 -1.981,7.369 0.071,1.108 0.288,1.834 0.716,3.27 0,0 1.127,6.564 6.503,10.118 1.556,1.028 0.98,0.142 2.217,-0.042 1.887,-0.282 3.699,0.062 5.777,-0.451 C 1.155,12.892 1.679,11.255 4.896,8.586 5.675,7.939 9.607,5.665 9.74,5.402 10.136,4.625 9.5,4.032 8.934,3.591 7.338,2.345 5.847,3.208 4.26,3.96 2.36,4.86 0.376,6.12 -1.411,7.256 -5.484,6.946 -1.168,1.733 0,0"
             style="fill:#f9e1b9;fill-opacity:1;fill-rule:nonzero;stroke:none"
             id="path296" />
        </g>
      </g>
    </g>
  </g>
</svg>
